<?xml version="1.0" encoding="UTF-8" standalone="no"?>
<!DOCTYPE svg PUBLIC "-//W3C//DTD SVG 1.1//EN"
 "http://www.w3.org/Graphics/SVG/1.1/DTD/svg11.dtd">
<!-- Generated by graphviz version 9.0.0 (20230911.1827)
 -->
<!-- Title: G Pages: 1 -->
<svg width="982pt" height="365pt"
 viewBox="0.00 0.00 981.90 364.90" xmlns="http://www.w3.org/2000/svg" xmlns:xlink="http://www.w3.org/1999/xlink">
<g id="graph0" class="graph" transform="scale(1 1) rotate(0) translate(4 360.9)">
<title>G</title><style>.edge>path:hover{stroke-width:8}</style>
<polygon fill="white" stroke="none" points="-4,4 -4,-360.9 977.9,-360.9 977.9,4 -4,4"/>
<!-- nexus_cli -->
<g id="node1" class="node">
<title>nexus_cli</title><style>.edge>path:hover{stroke-width:8}</style>
<polygon fill="blue" stroke="black" points="67,-147.34 12,-147.34 12,-111.34 67,-111.34 67,-147.34"/>
<text text-anchor="middle" x="39.5" y="-125.84" font-family="Helvetica,sans-Serif" font-size="10.00" fill="white">nexus.cli</text>
</g>
<!-- nexus_cli_config -->
<g id="node2" class="node">
<title>nexus_cli_config</title><style>.edge>path:hover{stroke-width:8}</style>
<ellipse fill="#b65353" stroke="black" cx="39.5" cy="-325.79" rx="32" ry="31.11"/>
<text text-anchor="middle" x="39.5" y="-334.29" font-family="Helvetica,sans-Serif" font-size="10.00" fill="#ffffff">nexus.</text>
<text text-anchor="middle" x="39.5" y="-322.29" font-family="Helvetica,sans-Serif" font-size="10.00" fill="#ffffff">cli.</text>
<text text-anchor="middle" x="39.5" y="-310.29" font-family="Helvetica,sans-Serif" font-size="10.00" fill="#ffffff">config</text>
</g>
<!-- nexus_cli_main -->
<g id="node3" class="node">
<title>nexus_cli_main</title><style>.edge>path:hover{stroke-width:8}</style>
<polygon fill="blue" stroke="black" points="79,-245.56 0,-245.56 0,-209.56 79,-209.56 79,-245.56"/>
<text text-anchor="middle" x="39.5" y="-224.06" font-family="Helvetica,sans-Serif" font-size="10.00" fill="white">nexus.cli.main</text>
</g>
<!-- nexus_cli_config&#45;&gt;nexus_cli_main -->
<g id="edge1" class="edge">
<title>nexus_cli_config&#45;&gt;nexus_cli_main</title><style>.edge>path:hover{stroke-width:8}</style>
<path fill="none" stroke="black" d="M39.5,-294.34C39.5,-282.49 39.5,-268.98 39.5,-257.3"/>
<polygon fill="#b65353" stroke="black" points="43,-257.45 39.5,-247.45 36,-257.45 43,-257.45"/>
</g>
<!-- nexus_cli_main&#45;&gt;nexus_cli -->
<g id="edge2" class="edge">
<title>nexus_cli_main&#45;&gt;nexus_cli</title><style>.edge>path:hover{stroke-width:8}</style>
<path fill="none" stroke="black" d="M39.5,-209.36C39.5,-195.35 39.5,-175.29 39.5,-158.88"/>
<polygon fill="blue" stroke="black" points="43,-159.23 39.5,-149.23 36,-159.23 43,-159.23"/>
</g>
<!-- nexus_service_config -->
<g id="node4" class="node">
<title>nexus_service_config</title><style>.edge>path:hover{stroke-width:8}</style>
<ellipse fill="#c24747" stroke="black" cx="171.5" cy="-227.56" rx="35.71" ry="31.11"/>
<text text-anchor="middle" x="171.5" y="-236.06" font-family="Helvetica,sans-Serif" font-size="10.00" fill="#ffffff">nexus.</text>
<text text-anchor="middle" x="171.5" y="-224.06" font-family="Helvetica,sans-Serif" font-size="10.00" fill="#ffffff">service.</text>
<text text-anchor="middle" x="171.5" y="-212.06" font-family="Helvetica,sans-Serif" font-size="10.00" fill="#ffffff">config</text>
</g>
<!-- nexus_service_main -->
<g id="node10" class="node">
<title>nexus_service_main</title><style>.edge>path:hover{stroke-width:8}</style>
<ellipse fill="#633535" stroke="black" cx="558.5" cy="-31.11" rx="35.71" ry="31.11"/>
<text text-anchor="middle" x="558.5" y="-39.61" font-family="Helvetica,sans-Serif" font-size="10.00" fill="#ffffff">nexus.</text>
<text text-anchor="middle" x="558.5" y="-27.61" font-family="Helvetica,sans-Serif" font-size="10.00" fill="#ffffff">service.</text>
<text text-anchor="middle" x="558.5" y="-15.61" font-family="Helvetica,sans-Serif" font-size="10.00" fill="#ffffff">main</text>
</g>
<!-- nexus_service_config&#45;&gt;nexus_service_main -->
<g id="edge3" class="edge">
<title>nexus_service_config&#45;&gt;nexus_service_main</title><style>.edge>path:hover{stroke-width:8}</style>
<path fill="none" stroke="black" d="M167.18,-196.46C165.45,-177.16 165.15,-151.81 171.5,-130.34"/>
</g>
<!-- nexus_service_scheduler -->
<g id="node12" class="node">
<title>nexus_service_scheduler</title><style>.edge>path:hover{stroke-width:8}</style>
<ellipse fill="#6b2e2e" stroke="black" cx="558.5" cy="-129.34" rx="41.01" ry="31.11"/>
<text text-anchor="middle" x="558.5" y="-137.84" font-family="Helvetica,sans-Serif" font-size="10.00" fill="#ffffff">nexus.</text>
<text text-anchor="middle" x="558.5" y="-125.84" font-family="Helvetica,sans-Serif" font-size="10.00" fill="#ffffff">service.</text>
<text text-anchor="middle" x="558.5" y="-113.84" font-family="Helvetica,sans-Serif" font-size="10.00" fill="#ffffff">scheduler</text>
</g>
<!-- nexus_service_config&#45;&gt;nexus_service_scheduler -->
<g id="edge4" class="edge">
<title>nexus_service_config&#45;&gt;nexus_service_scheduler</title><style>.edge>path:hover{stroke-width:8}</style>
<path fill="none" stroke="black" d="M197.48,-206.23C203.18,-202.52 209.35,-199.02 215.5,-196.45 313.11,-155.72 436.93,-139.8 505.93,-133.79"/>
<polygon fill="#c24747" stroke="black" points="506.16,-137.29 515.83,-132.97 505.58,-130.31 506.16,-137.29"/>
</g>
<!-- nexus_service_format -->
<g id="node5" class="node">
<title>nexus_service_format</title><style>.edge>path:hover{stroke-width:8}</style>
<ellipse fill="#b03a3a" stroke="black" cx="919.5" cy="-227.56" rx="35.71" ry="31.11"/>
<text text-anchor="middle" x="919.5" y="-236.06" font-family="Helvetica,sans-Serif" font-size="10.00" fill="#ffffff">nexus.</text>
<text text-anchor="middle" x="919.5" y="-224.06" font-family="Helvetica,sans-Serif" font-size="10.00" fill="#ffffff">service.</text>
<text text-anchor="middle" x="919.5" y="-212.06" font-family="Helvetica,sans-Serif" font-size="10.00" fill="#ffffff">format</text>
</g>
<!-- nexus_service_format&#45;&gt;nexus_service_main -->
<g id="edge5" class="edge">
<title>nexus_service_format&#45;&gt;nexus_service_main</title><style>.edge>path:hover{stroke-width:8}</style>
<path fill="none" stroke="black" d="M924.57,-196.63C926.65,-177.18 927.07,-151.58 919.5,-130.34"/>
</g>
<!-- nexus_service_format&#45;&gt;nexus_service_scheduler -->
<g id="edge6" class="edge">
<title>nexus_service_format&#45;&gt;nexus_service_scheduler</title><style>.edge>path:hover{stroke-width:8}</style>
<path fill="none" stroke="black" d="M891.53,-207.5C884.56,-203.38 876.95,-199.39 869.5,-196.45 782.13,-161.98 673.5,-144.13 610.48,-136.03"/>
<polygon fill="#b03a3a" stroke="black" points="611.12,-132.58 600.76,-134.81 610.25,-139.52 611.12,-132.58"/>
</g>
<!-- nexus_service_git -->
<g id="node6" class="node">
<title>nexus_service_git</title><style>.edge>path:hover{stroke-width:8}</style>
<ellipse fill="#b03a3a" stroke="black" cx="260.5" cy="-227.56" rx="35.71" ry="31.11"/>
<text text-anchor="middle" x="260.5" y="-236.06" font-family="Helvetica,sans-Serif" font-size="10.00" fill="#ffffff">nexus.</text>
<text text-anchor="middle" x="260.5" y="-224.06" font-family="Helvetica,sans-Serif" font-size="10.00" fill="#ffffff">service.</text>
<text text-anchor="middle" x="260.5" y="-212.06" font-family="Helvetica,sans-Serif" font-size="10.00" fill="#ffffff">git</text>
</g>
<!-- nexus_service_git&#45;&gt;nexus_service_main -->
<g id="edge7" class="edge">
<title>nexus_service_git&#45;&gt;nexus_service_main</title><style>.edge>path:hover{stroke-width:8}</style>
<path fill="none" stroke="black" d="M233.75,-206.37C205.63,-183.96 166.11,-148.56 171.5,-130.34"/>
</g>
<!-- nexus_service_git&#45;&gt;nexus_service_scheduler -->
<g id="edge8" class="edge">
<title>nexus_service_git&#45;&gt;nexus_service_scheduler</title><style>.edge>path:hover{stroke-width:8}</style>
<path fill="none" stroke="black" d="M288.59,-207.77C295.55,-203.64 303.13,-199.58 310.5,-196.45 376.09,-168.62 456.5,-149.76 507.63,-139.53"/>
<polygon fill="#b03a3a" stroke="black" points="508.08,-143 517.22,-137.64 506.74,-136.13 508.08,-143"/>
</g>
<!-- nexus_service_gpu -->
<g id="node7" class="node">
<title>nexus_service_gpu</title><style>.edge>path:hover{stroke-width:8}</style>
<ellipse fill="#a83838" stroke="black" cx="510.5" cy="-227.56" rx="35.71" ry="31.11"/>
<text text-anchor="middle" x="510.5" y="-236.06" font-family="Helvetica,sans-Serif" font-size="10.00" fill="#ffffff">nexus.</text>
<text text-anchor="middle" x="510.5" y="-224.06" font-family="Helvetica,sans-Serif" font-size="10.00" fill="#ffffff">service.</text>
<text text-anchor="middle" x="510.5" y="-212.06" font-family="Helvetica,sans-Serif" font-size="10.00" fill="#ffffff">gpu</text>
</g>
<!-- nexus_service_gpu&#45;&gt;nexus_service_main -->
<g id="edge9" class="edge">
<title>nexus_service_gpu&#45;&gt;nexus_service_main</title><style>.edge>path:hover{stroke-width:8}</style>
<path fill="none" stroke="black" d="M483.82,-206.39C478,-202.67 471.72,-199.12 465.5,-196.45 342.43,-143.62 133.52,-258.77 171.5,-130.34"/>
</g>
<!-- nexus_service_gpu&#45;&gt;nexus_service_scheduler -->
<g id="edge10" class="edge">
<title>nexus_service_gpu&#45;&gt;nexus_service_scheduler</title><style>.edge>path:hover{stroke-width:8}</style>
<path fill="none" stroke="black" d="M524.51,-198.47C529.11,-189.25 534.31,-178.83 539.23,-168.97"/>
<polygon fill="#a83838" stroke="black" points="542.21,-170.83 543.54,-160.32 535.95,-167.71 542.21,-170.83"/>
</g>
<!-- nexus_service_job -->
<g id="node8" class="node">
<title>nexus_service_job</title><style>.edge>path:hover{stroke-width:8}</style>
<ellipse fill="#a83838" stroke="black" cx="702.5" cy="-227.56" rx="35.71" ry="31.11"/>
<text text-anchor="middle" x="702.5" y="-236.06" font-family="Helvetica,sans-Serif" font-size="10.00" fill="#ffffff">nexus.</text>
<text text-anchor="middle" x="702.5" y="-224.06" font-family="Helvetica,sans-Serif" font-size="10.00" fill="#ffffff">service.</text>
<text text-anchor="middle" x="702.5" y="-212.06" font-family="Helvetica,sans-Serif" font-size="10.00" fill="#ffffff">job</text>
</g>
<!-- nexus_service_job&#45;&gt;nexus_service_main -->
<g id="edge11" class="edge">
<title>nexus_service_job&#45;&gt;nexus_service_main</title><style>.edge>path:hover{stroke-width:8}</style>
<path fill="none" stroke="black" d="M729.34,-206.74C734.87,-203.07 740.76,-199.46 746.5,-196.45 819.41,-158.25 947.12,-207.88 919.5,-130.34"/>
<path fill="none" stroke="black" d="M919.5,-128.34C898.21,-68.57 698.64,-43.96 605.7,-35.67"/>
<polygon fill="#a83838" stroke="black" points="606.16,-32.2 595.89,-34.83 605.56,-39.17 606.16,-32.2"/>
</g>
<!-- nexus_service_job&#45;&gt;nexus_service_scheduler -->
<g id="edge12" class="edge">
<title>nexus_service_job&#45;&gt;nexus_service_scheduler</title><style>.edge>path:hover{stroke-width:8}</style>
<path fill="none" stroke="black" d="M675.08,-207.7C669.6,-203.96 663.88,-200.07 658.5,-196.45 638.89,-183.26 616.99,-168.75 598.7,-156.7"/>
<polygon fill="#a83838" stroke="black" points="600.76,-153.87 590.49,-151.3 596.91,-159.72 600.76,-153.87"/>
</g>
<!-- nexus_service_logger -->
<g id="node9" class="node">
<title>nexus_service_logger</title><style>.edge>path:hover{stroke-width:8}</style>
<ellipse fill="#f91010" stroke="black" cx="457.5" cy="-325.79" rx="35.71" ry="31.11"/>
<text text-anchor="middle" x="457.5" y="-334.29" font-family="Helvetica,sans-Serif" font-size="10.00" fill="#ffffff">nexus.</text>
<text text-anchor="middle" x="457.5" y="-322.29" font-family="Helvetica,sans-Serif" font-size="10.00" fill="#ffffff">service.</text>
<text text-anchor="middle" x="457.5" y="-310.29" font-family="Helvetica,sans-Serif" font-size="10.00" fill="#ffffff">logger</text>
</g>
<!-- nexus_service_logger&#45;&gt;nexus_service_git -->
<g id="edge13" class="edge">
<title>nexus_service_logger&#45;&gt;nexus_service_git</title><style>.edge>path:hover{stroke-width:8}</style>
<path fill="none" stroke="black" d="M425.44,-311.68C395.3,-299.05 349.17,-278.93 310.5,-258.68 306.78,-256.73 302.95,-254.62 299.15,-252.46"/>
<polygon fill="#f91010" stroke="black" points="300.96,-249.46 290.55,-247.44 297.43,-255.5 300.96,-249.46"/>
</g>
<!-- nexus_service_logger&#45;&gt;nexus_service_gpu -->
<g id="edge14" class="edge">
<title>nexus_service_logger&#45;&gt;nexus_service_gpu</title><style>.edge>path:hover{stroke-width:8}</style>
<path fill="none" stroke="black" d="M472.69,-297.21C478.01,-287.55 484.08,-276.53 489.78,-266.18"/>
<polygon fill="#f91010" stroke="black" points="492.82,-267.92 494.58,-257.47 486.69,-264.54 492.82,-267.92"/>
</g>
<!-- nexus_service_logger&#45;&gt;nexus_service_job -->
<g id="edge15" class="edge">
<title>nexus_service_logger&#45;&gt;nexus_service_job</title><style>.edge>path:hover{stroke-width:8}</style>
<path fill="none" stroke="black" d="M492.08,-316.6C533.07,-306.18 602.84,-286.18 658.5,-258.68 661.04,-257.42 663.6,-256.03 666.15,-254.57"/>
<polygon fill="#f91010" stroke="black" points="667.82,-257.64 674.48,-249.4 664.14,-251.69 667.82,-257.64"/>
</g>
<!-- nexus_service_logger&#45;&gt;nexus_service_main -->
<g id="edge16" class="edge">
<title>nexus_service_logger&#45;&gt;nexus_service_main</title><style>.edge>path:hover{stroke-width:8}</style>
<path fill="none" stroke="black" d="M421.66,-323.15C343.88,-318.78 163.56,-303.88 126.5,-258.68 108.96,-237.29 118.36,-222.88 126.5,-196.45 136.96,-162.48 161.42,-164.42 171.5,-130.34"/>
<path fill="none" stroke="black" d="M171.5,-128.34C190.29,-62.35 411.94,-40.86 511.09,-34.52"/>
<polygon fill="#f91010" stroke="black" points="511.27,-38.02 521.04,-33.91 510.84,-31.03 511.27,-38.02"/>
</g>
<!-- nexus_service_logger&#45;&gt;nexus_service_scheduler -->
<g id="edge17" class="edge">
<title>nexus_service_logger&#45;&gt;nexus_service_scheduler</title><style>.edge>path:hover{stroke-width:8}</style>
<path fill="none" stroke="black" d="M423.59,-315.37C396.58,-305.88 360.57,-288.31 343.5,-258.68 329.7,-234.71 327.07,-218.7 343.5,-196.45 380.53,-146.33 454.93,-133 505.72,-130.08"/>
<polygon fill="#f91010" stroke="black" points="505.79,-133.58 515.63,-129.64 505.48,-126.59 505.79,-133.58"/>
</g>
<!-- nexus_service_state -->
<g id="node13" class="node">
<title>nexus_service_state</title><style>.edge>path:hover{stroke-width:8}</style>
<ellipse fill="#a83838" stroke="black" cx="791.5" cy="-227.56" rx="35.71" ry="31.11"/>
<text text-anchor="middle" x="791.5" y="-236.06" font-family="Helvetica,sans-Serif" font-size="10.00" fill="#ffffff">nexus.</text>
<text text-anchor="middle" x="791.5" y="-224.06" font-family="Helvetica,sans-Serif" font-size="10.00" fill="#ffffff">service.</text>
<text text-anchor="middle" x="791.5" y="-212.06" font-family="Helvetica,sans-Serif" font-size="10.00" fill="#ffffff">state</text>
</g>
<!-- nexus_service_logger&#45;&gt;nexus_service_state -->
<g id="edge18" class="edge">
<title>nexus_service_logger&#45;&gt;nexus_service_state</title><style>.edge>path:hover{stroke-width:8}</style>
<path fill="none" stroke="black" d="M493.21,-321.02C549.32,-314.14 660.68,-296.63 747.5,-258.68 750.1,-257.54 752.7,-256.25 755.28,-254.85"/>
<polygon fill="#f91010" stroke="black" points="756.89,-257.96 763.67,-249.82 753.3,-251.95 756.89,-257.96"/>
</g>
<!-- nexus_service_wandb_finder -->
<g id="node14" class="node">
<title>nexus_service_wandb_finder</title><style>.edge>path:hover{stroke-width:8}</style>
<ellipse fill="#a44646" stroke="black" cx="404.5" cy="-227.56" rx="52.15" ry="31.11"/>
<text text-anchor="middle" x="404.5" y="-236.06" font-family="Helvetica,sans-Serif" font-size="10.00" fill="#ffffff">nexus.</text>
<text text-anchor="middle" x="404.5" y="-224.06" font-family="Helvetica,sans-Serif" font-size="10.00" fill="#ffffff">service.</text>
<text text-anchor="middle" x="404.5" y="-212.06" font-family="Helvetica,sans-Serif" font-size="10.00" fill="#ffffff">wandb_finder</text>
</g>
<!-- nexus_service_logger&#45;&gt;nexus_service_wandb_finder -->
<g id="edge19" class="edge">
<title>nexus_service_logger&#45;&gt;nexus_service_wandb_finder</title><style>.edge>path:hover{stroke-width:8}</style>
<path fill="none" stroke="black" d="M442.31,-297.21C437.17,-287.88 431.34,-277.29 425.81,-267.26"/>
<polygon fill="#f91010" stroke="black" points="429.05,-265.88 421.16,-258.81 422.92,-269.26 429.05,-265.88"/>
</g>
<!-- nexus_service_webhooks -->
<g id="node15" class="node">
<title>nexus_service_webhooks</title><style>.edge>path:hover{stroke-width:8}</style>
<ellipse fill="#9d4343" stroke="black" cx="606.5" cy="-227.56" rx="42.6" ry="31.11"/>
<text text-anchor="middle" x="606.5" y="-236.06" font-family="Helvetica,sans-Serif" font-size="10.00" fill="#ffffff">nexus.</text>
<text text-anchor="middle" x="606.5" y="-224.06" font-family="Helvetica,sans-Serif" font-size="10.00" fill="#ffffff">service.</text>
<text text-anchor="middle" x="606.5" y="-212.06" font-family="Helvetica,sans-Serif" font-size="10.00" fill="#ffffff">webhooks</text>
</g>
<!-- nexus_service_logger&#45;&gt;nexus_service_webhooks -->
<g id="edge20" class="edge">
<title>nexus_service_logger&#45;&gt;nexus_service_webhooks</title><style>.edge>path:hover{stroke-width:8}</style>
<path fill="none" stroke="black" d="M485.88,-306.46C508.41,-291.91 540.23,-271.36 565.53,-255.02"/>
<polygon fill="#f91010" stroke="black" points="567.1,-258.17 573.6,-249.81 563.31,-252.29 567.1,-258.17"/>
</g>
<!-- nexus_service_models -->
<g id="node11" class="node">
<title>nexus_service_models</title><style>.edge>path:hover{stroke-width:8}</style>
<ellipse fill="#f91010" stroke="black" cx="791.5" cy="-325.79" rx="35.71" ry="31.11"/>
<text text-anchor="middle" x="791.5" y="-334.29" font-family="Helvetica,sans-Serif" font-size="10.00" fill="#ffffff">nexus.</text>
<text text-anchor="middle" x="791.5" y="-322.29" font-family="Helvetica,sans-Serif" font-size="10.00" fill="#ffffff">service.</text>
<text text-anchor="middle" x="791.5" y="-310.29" font-family="Helvetica,sans-Serif" font-size="10.00" fill="#ffffff">models</text>
</g>
<!-- nexus_service_models&#45;&gt;nexus_service_format -->
<g id="edge21" class="edge">
<title>nexus_service_models&#45;&gt;nexus_service_format</title><style>.edge>path:hover{stroke-width:8}</style>
<path fill="none" stroke="black" d="M818.33,-304.62C837.28,-290.38 862.87,-271.14 883.58,-255.57"/>
<polygon fill="#f91010" stroke="black" points="885.6,-258.43 891.49,-249.62 881.4,-252.83 885.6,-258.43"/>
</g>
<!-- nexus_service_models&#45;&gt;nexus_service_gpu -->
<g id="edge22" class="edge">
<title>nexus_service_models&#45;&gt;nexus_service_gpu</title><style>.edge>path:hover{stroke-width:8}</style>
<path fill="none" stroke="black" d="M756.5,-318.76C709.11,-309.77 622.64,-290.43 554.5,-258.68 551.93,-257.48 549.35,-256.14 546.79,-254.7"/>
<polygon fill="#f91010" stroke="black" points="548.78,-251.82 538.42,-249.61 545.14,-257.8 548.78,-251.82"/>
</g>
<!-- nexus_service_models&#45;&gt;nexus_service_job -->
<g id="edge23" class="edge">
<title>nexus_service_models&#45;&gt;nexus_service_job</title><style>.edge>path:hover{stroke-width:8}</style>
<path fill="none" stroke="black" d="M769.5,-301C758.27,-288.86 744.44,-273.91 732.27,-260.75"/>
<polygon fill="#f91010" stroke="black" points="734.94,-258.49 725.58,-253.52 729.8,-263.24 734.94,-258.49"/>
</g>
<!-- nexus_service_models&#45;&gt;nexus_service_main -->
<g id="edge24" class="edge">
<title>nexus_service_models&#45;&gt;nexus_service_main</title><style>.edge>path:hover{stroke-width:8}</style>
<path fill="none" stroke="black" d="M827.19,-322.58C868.16,-317.91 933.69,-303.44 964.5,-258.68 980.18,-235.9 972.64,-222.88 964.5,-196.45 954.04,-162.48 931.43,-163.82 919.5,-130.34"/>
</g>
<!-- nexus_service_models&#45;&gt;nexus_service_scheduler -->
<g id="edge25" class="edge">
<title>nexus_service_models&#45;&gt;nexus_service_scheduler</title><style>.edge>path:hover{stroke-width:8}</style>
<path fill="none" stroke="black" d="M812.51,-300.75C834.03,-273.12 861.09,-227.58 836.5,-196.45 808.88,-161.49 683.13,-143.04 610.57,-135.14"/>
<polygon fill="#f91010" stroke="black" points="611.23,-131.69 600.91,-134.12 610.49,-138.65 611.23,-131.69"/>
</g>
<!-- nexus_service_models&#45;&gt;nexus_service_state -->
<g id="edge26" class="edge">
<title>nexus_service_models&#45;&gt;nexus_service_state</title><style>.edge>path:hover{stroke-width:8}</style>
<path fill="none" stroke="black" d="M791.5,-294.34C791.5,-286.8 791.5,-278.58 791.5,-270.58"/>
<polygon fill="#f91010" stroke="black" points="795,-270.66 791.5,-260.66 788,-270.66 795,-270.66"/>
</g>
<!-- nexus_service_models&#45;&gt;nexus_service_webhooks -->
<g id="edge27" class="edge">
<title>nexus_service_models&#45;&gt;nexus_service_webhooks</title><style>.edge>path:hover{stroke-width:8}</style>
<path fill="none" stroke="black" d="M760.29,-310.21C732.92,-297.23 692.18,-277.44 657.5,-258.68 654.66,-257.14 651.75,-255.53 648.83,-253.88"/>
<polygon fill="#f91010" stroke="black" points="650.67,-250.9 640.25,-248.96 647.19,-256.97 650.67,-250.9"/>
</g>
<!-- nexus_service_scheduler&#45;&gt;nexus_service_main -->
<g id="edge28" class="edge">
<title>nexus_service_scheduler&#45;&gt;nexus_service_main</title><style>.edge>path:hover{stroke-width:8}</style>
<path fill="none" stroke="black" d="M558.5,-97.89C558.5,-90.35 558.5,-82.12 558.5,-74.13"/>
<polygon fill="#6b2e2e" stroke="black" points="562,-74.2 558.5,-64.2 555,-74.2 562,-74.2"/>
</g>
<!-- nexus_service_state&#45;&gt;nexus_service_main -->
<g id="edge29" class="edge">
<title>nexus_service_state&#45;&gt;nexus_service_main</title><style>.edge>path:hover{stroke-width:8}</style>
<path fill="none" stroke="black" d="M822.56,-211.53C863.04,-190.85 927.78,-153.58 919.5,-130.34"/>
</g>
<!-- nexus_service_state&#45;&gt;nexus_service_scheduler -->
<g id="edge30" class="edge">
<title>nexus_service_state&#45;&gt;nexus_service_scheduler</title><style>.edge>path:hover{stroke-width:8}</style>
<path fill="none" stroke="black" d="M764.73,-206.61C759.19,-202.95 753.28,-199.38 747.5,-196.45 702.19,-173.53 647.05,-155.24 608.05,-143.76"/>
<polygon fill="#a83838" stroke="black" points="609.03,-140.4 598.45,-140.98 607.08,-147.12 609.03,-140.4"/>
</g>
<!-- nexus_service_wandb_finder&#45;&gt;nexus_service_scheduler -->
<g id="edge31" class="edge">
<title>nexus_service_wandb_finder&#45;&gt;nexus_service_scheduler</title><style>.edge>path:hover{stroke-width:8}</style>
<path fill="none" stroke="black" d="M439.83,-204.49C463.01,-190 493.4,-171.01 517.62,-155.88"/>
<polygon fill="#a44646" stroke="black" points="519.34,-158.93 525.97,-150.67 515.63,-153 519.34,-158.93"/>
</g>
<!-- nexus_service_webhooks&#45;&gt;nexus_service_scheduler -->
<g id="edge32" class="edge">
<title>nexus_service_webhooks&#45;&gt;nexus_service_scheduler</title><style>.edge>path:hover{stroke-width:8}</style>
<path fill="none" stroke="black" d="M592.23,-197.95C587.72,-188.92 582.67,-178.79 577.87,-169.17"/>
<polygon fill="#9d4343" stroke="black" points="581.07,-167.74 573.48,-160.36 574.81,-170.87 581.07,-167.74"/>
</g>
</g>
</svg>
