<?xml version="1.0" encoding="UTF-8" standalone="no"?>
<!DOCTYPE svg PUBLIC "-//W3C//DTD SVG 1.1//EN"
 "http://www.w3.org/Graphics/SVG/1.1/DTD/svg11.dtd">
<!-- Generated by graphviz version 9.0.0 (20230911.1827)
 -->
<!-- Title: G Pages: 1 -->
<svg width="1405pt" height="744pt"
 viewBox="0.00 0.00 1405.46 744.43" xmlns="http://www.w3.org/2000/svg" xmlns:xlink="http://www.w3.org/1999/xlink">
<g id="graph0" class="graph" transform="scale(1 1) rotate(0) translate(4 740.43)">
<title>G</title><style>.edge>path:hover{stroke-width:8}</style>
<polygon fill="white" stroke="none" points="-4,4 -4,-740.43 1401.46,-740.43 1401.46,4 -4,4"/>
<!-- nexus_cli -->
<g id="node1" class="node">
<title>nexus_cli</title><style>.edge>path:hover{stroke-width:8}</style>
<polygon fill="blue" stroke="black" points="67,-484.44 12,-484.44 12,-448.44 67,-448.44 67,-484.44"/>
<text text-anchor="middle" x="39.5" y="-462.94" font-family="Helvetica,sans-Serif" font-size="10.00" fill="white">nexus.cli</text>
</g>
<!-- nexus_cli_config -->
<g id="node2" class="node">
<title>nexus_cli_config</title><style>.edge>path:hover{stroke-width:8}</style>
<ellipse fill="#b65353" stroke="black" cx="39.5" cy="-696.83" rx="32" ry="31.11"/>
<text text-anchor="middle" x="39.5" y="-705.33" font-family="Helvetica,sans-Serif" font-size="10.00" fill="#ffffff">nexus.</text>
<text text-anchor="middle" x="39.5" y="-693.33" font-family="Helvetica,sans-Serif" font-size="10.00" fill="#ffffff">cli.</text>
<text text-anchor="middle" x="39.5" y="-681.33" font-family="Helvetica,sans-Serif" font-size="10.00" fill="#ffffff">config</text>
</g>
<!-- nexus_cli_main -->
<g id="node3" class="node">
<title>nexus_cli_main</title><style>.edge>path:hover{stroke-width:8}</style>
<polygon fill="blue" stroke="black" points="79,-599.64 0,-599.64 0,-563.64 79,-563.64 79,-599.64"/>
<text text-anchor="middle" x="39.5" y="-578.14" font-family="Helvetica,sans-Serif" font-size="10.00" fill="white">nexus.cli.main</text>
</g>
<!-- nexus_cli_config&#45;&gt;nexus_cli_main -->
<g id="edge1" class="edge">
<title>nexus_cli_config&#45;&gt;nexus_cli_main</title><style>.edge>path:hover{stroke-width:8}</style>
<path fill="none" stroke="black" d="M39.5,-665.5C39.5,-648.63 39.5,-627.77 39.5,-611.2"/>
<polygon fill="#b65353" stroke="black" points="43,-611.53 39.5,-601.53 36,-611.53 43,-611.53"/>
</g>
<!-- nexus_cli_main&#45;&gt;nexus_cli -->
<g id="edge2" class="edge">
<title>nexus_cli_main&#45;&gt;nexus_cli</title><style>.edge>path:hover{stroke-width:8}</style>
<path fill="none" stroke="black" d="M39.5,-563.44C39.5,-545.58 39.5,-517.31 39.5,-496.06"/>
<polygon fill="blue" stroke="black" points="43,-496.31 39.5,-486.31 36,-496.31 43,-496.31"/>
</g>
<!-- nexus_service_api -->
<g id="node4" class="node">
<title>nexus_service_api</title><style>.edge>path:hover{stroke-width:8}</style>
<ellipse fill="#b65353" stroke="black" cx="637.5" cy="-129.34" rx="35.71" ry="31.11"/>
<text text-anchor="middle" x="637.5" y="-137.84" font-family="Helvetica,sans-Serif" font-size="10.00" fill="#ffffff">nexus.</text>
<text text-anchor="middle" x="637.5" y="-125.84" font-family="Helvetica,sans-Serif" font-size="10.00" fill="#ffffff">service.</text>
<text text-anchor="middle" x="637.5" y="-113.84" font-family="Helvetica,sans-Serif" font-size="10.00" fill="#ffffff">api</text>
</g>
<!-- nexus_service_main -->
<g id="node21" class="node">
<title>nexus_service_main</title><style>.edge>path:hover{stroke-width:8}</style>
<ellipse fill="#633535" stroke="black" cx="737.5" cy="-31.11" rx="35.71" ry="31.11"/>
<text text-anchor="middle" x="737.5" y="-39.61" font-family="Helvetica,sans-Serif" font-size="10.00" fill="#ffffff">nexus.</text>
<text text-anchor="middle" x="737.5" y="-27.61" font-family="Helvetica,sans-Serif" font-size="10.00" fill="#ffffff">service.</text>
<text text-anchor="middle" x="737.5" y="-15.61" font-family="Helvetica,sans-Serif" font-size="10.00" fill="#ffffff">main</text>
</g>
<!-- nexus_service_api&#45;&gt;nexus_service_main -->
<g id="edge3" class="edge">
<title>nexus_service_api&#45;&gt;nexus_service_main</title><style>.edge>path:hover{stroke-width:8}</style>
<path fill="none" stroke="black" d="M661.2,-105.53C674.52,-92.71 691.33,-76.54 705.78,-62.63"/>
<polygon fill="#b65353" stroke="black" points="708.1,-65.26 712.88,-55.8 703.25,-60.21 708.1,-65.26"/>
</g>
<!-- nexus_service_api_router -->
<g id="node5" class="node">
<title>nexus_service_api_router</title><style>.edge>path:hover{stroke-width:8}</style>
<ellipse fill="#6b2e2e" stroke="black" cx="606.5" cy="-236.05" rx="35.71" ry="39.6"/>
<text text-anchor="middle" x="606.5" y="-250.55" font-family="Helvetica,sans-Serif" font-size="10.00" fill="#ffffff">nexus.</text>
<text text-anchor="middle" x="606.5" y="-238.55" font-family="Helvetica,sans-Serif" font-size="10.00" fill="#ffffff">service.</text>
<text text-anchor="middle" x="606.5" y="-226.55" font-family="Helvetica,sans-Serif" font-size="10.00" fill="#ffffff">api.</text>
<text text-anchor="middle" x="606.5" y="-214.55" font-family="Helvetica,sans-Serif" font-size="10.00" fill="#ffffff">router</text>
</g>
<!-- nexus_service_api_router&#45;&gt;nexus_service_main -->
<g id="edge4" class="edge">
<title>nexus_service_api_router&#45;&gt;nexus_service_main</title><style>.edge>path:hover{stroke-width:8}</style>
<path fill="none" stroke="black" d="M634.44,-210.57C649.53,-196.65 667.99,-178.44 682.5,-160.45 692.44,-148.13 693.46,-143.97 701.5,-130.34"/>
</g>
<!-- nexus_service_api_scheduler -->
<g id="node6" class="node">
<title>nexus_service_api_scheduler</title><style>.edge>path:hover{stroke-width:8}</style>
<ellipse fill="#6b2e2e" stroke="black" cx="701.5" cy="-236.05" rx="41.01" ry="39.6"/>
<text text-anchor="middle" x="701.5" y="-250.55" font-family="Helvetica,sans-Serif" font-size="10.00" fill="#ffffff">nexus.</text>
<text text-anchor="middle" x="701.5" y="-238.55" font-family="Helvetica,sans-Serif" font-size="10.00" fill="#ffffff">service.</text>
<text text-anchor="middle" x="701.5" y="-226.55" font-family="Helvetica,sans-Serif" font-size="10.00" fill="#ffffff">api.</text>
<text text-anchor="middle" x="701.5" y="-214.55" font-family="Helvetica,sans-Serif" font-size="10.00" fill="#ffffff">scheduler</text>
</g>
<!-- nexus_service_api_scheduler&#45;&gt;nexus_service_main -->
<g id="edge5" class="edge">
<title>nexus_service_api_scheduler&#45;&gt;nexus_service_main</title><style>.edge>path:hover{stroke-width:8}</style>
<path fill="none" stroke="black" d="M692.57,-197.23C689.68,-176.15 689.77,-150.23 701.5,-130.34"/>
</g>
<!-- nexus_service_core -->
<g id="node7" class="node">
<title>nexus_service_core</title><style>.edge>path:hover{stroke-width:8}</style>
<ellipse fill="#f91010" stroke="black" cx="654.5" cy="-696.83" rx="35.71" ry="31.11"/>
<text text-anchor="middle" x="654.5" y="-705.33" font-family="Helvetica,sans-Serif" font-size="10.00" fill="#ffffff">nexus.</text>
<text text-anchor="middle" x="654.5" y="-693.33" font-family="Helvetica,sans-Serif" font-size="10.00" fill="#ffffff">service.</text>
<text text-anchor="middle" x="654.5" y="-681.33" font-family="Helvetica,sans-Serif" font-size="10.00" fill="#ffffff">core</text>
</g>
<!-- nexus_service_core&#45;&gt;nexus_service_api_router -->
<g id="edge6" class="edge">
<title>nexus_service_core&#45;&gt;nexus_service_api_router</title><style>.edge>path:hover{stroke-width:8}</style>
<path fill="none" stroke="black" d="M666.43,-667.07C675.23,-644.52 686.64,-612.12 692.5,-582.64"/>
<path fill="none" stroke="black" d="M692.5,-580.64C701.18,-536.93 646.8,-545.18 625.5,-506.04 592.58,-445.54 595.44,-420.22 606.5,-352.24"/>
</g>
<!-- nexus_service_core&#45;&gt;nexus_service_api_scheduler -->
<g id="edge7" class="edge">
<title>nexus_service_core&#45;&gt;nexus_service_api_scheduler</title><style>.edge>path:hover{stroke-width:8}</style>
<path fill="none" stroke="black" d="M690.33,-696.18C817.69,-696.78 1246.9,-693.31 1359.5,-621.23 1376.32,-610.47 1372.95,-600.18 1382.5,-582.64"/>
<path fill="none" stroke="black" d="M1382.5,-580.64C1402.14,-544.57 1306.35,-511.91 1300.5,-506.04 1271.44,-476.89 1276.78,-460.08 1252.5,-426.84 1226.56,-391.33 1195.32,-395.52 1187.5,-352.24"/>
</g>
<!-- nexus_service_installation_setup -->
<g id="node14" class="node">
<title>nexus_service_installation_setup</title><style>.edge>path:hover{stroke-width:8}</style>
<ellipse fill="#964040" stroke="black" cx="1312.5" cy="-351.24" rx="46.32" ry="39.6"/>
<text text-anchor="middle" x="1312.5" y="-365.74" font-family="Helvetica,sans-Serif" font-size="10.00" fill="#ffffff">nexus.</text>
<text text-anchor="middle" x="1312.5" y="-353.74" font-family="Helvetica,sans-Serif" font-size="10.00" fill="#ffffff">service.</text>
<text text-anchor="middle" x="1312.5" y="-341.74" font-family="Helvetica,sans-Serif" font-size="10.00" fill="#ffffff">installation.</text>
<text text-anchor="middle" x="1312.5" y="-329.74" font-family="Helvetica,sans-Serif" font-size="10.00" fill="#ffffff">setup</text>
</g>
<!-- nexus_service_core&#45;&gt;nexus_service_installation_setup -->
<g id="edge8" class="edge">
<title>nexus_service_core&#45;&gt;nexus_service_installation_setup</title><style>.edge>path:hover{stroke-width:8}</style>
<path fill="none" stroke="black" d="M1382.5,-580.64C1406.57,-536.42 1393.43,-517.3 1386.5,-467.44"/>
<path fill="none" stroke="black" d="M1386.5,-465.44C1382.62,-437.49 1366.06,-410.82 1349.6,-390.41"/>
<polygon fill="#f91010" stroke="black" points="1352.42,-388.33 1343.31,-382.93 1347.06,-392.83 1352.42,-388.33"/>
</g>
<!-- nexus_service_integrations_git -->
<g id="node16" class="node">
<title>nexus_service_integrations_git</title><style>.edge>path:hover{stroke-width:8}</style>
<ellipse fill="#a83838" stroke="black" cx="911.5" cy="-466.44" rx="48.97" ry="39.6"/>
<text text-anchor="middle" x="911.5" y="-480.94" font-family="Helvetica,sans-Serif" font-size="10.00" fill="#ffffff">nexus.</text>
<text text-anchor="middle" x="911.5" y="-468.94" font-family="Helvetica,sans-Serif" font-size="10.00" fill="#ffffff">service.</text>
<text text-anchor="middle" x="911.5" y="-456.94" font-family="Helvetica,sans-Serif" font-size="10.00" fill="#ffffff">integrations.</text>
<text text-anchor="middle" x="911.5" y="-444.94" font-family="Helvetica,sans-Serif" font-size="10.00" fill="#ffffff">git</text>
</g>
<!-- nexus_service_core&#45;&gt;nexus_service_integrations_git -->
<g id="edge9" class="edge">
<title>nexus_service_core&#45;&gt;nexus_service_integrations_git</title><style>.edge>path:hover{stroke-width:8}</style>
<path fill="none" stroke="black" d="M690.33,-693.34C753.73,-686.88 885.23,-663.88 951.5,-582.64"/>
<path fill="none" stroke="black" d="M951.5,-580.64C968.16,-560.22 958.6,-532.35 944.67,-509.38"/>
<polygon fill="#f91010" stroke="black" points="947.7,-507.62 939.31,-501.14 941.83,-511.44 947.7,-507.62"/>
</g>
<!-- nexus_service_integrations_gpu -->
<g id="node17" class="node">
<title>nexus_service_integrations_gpu</title><style>.edge>path:hover{stroke-width:8}</style>
<ellipse fill="#a13535" stroke="black" cx="529.5" cy="-466.44" rx="48.97" ry="39.6"/>
<text text-anchor="middle" x="529.5" y="-480.94" font-family="Helvetica,sans-Serif" font-size="10.00" fill="#ffffff">nexus.</text>
<text text-anchor="middle" x="529.5" y="-468.94" font-family="Helvetica,sans-Serif" font-size="10.00" fill="#ffffff">service.</text>
<text text-anchor="middle" x="529.5" y="-456.94" font-family="Helvetica,sans-Serif" font-size="10.00" fill="#ffffff">integrations.</text>
<text text-anchor="middle" x="529.5" y="-444.94" font-family="Helvetica,sans-Serif" font-size="10.00" fill="#ffffff">gpu</text>
</g>
<!-- nexus_service_core&#45;&gt;nexus_service_integrations_gpu -->
<g id="edge10" class="edge">
<title>nexus_service_core&#45;&gt;nexus_service_integrations_gpu</title><style>.edge>path:hover{stroke-width:8}</style>
<path fill="none" stroke="black" d="M639.42,-668.28C618.35,-629.79 579.84,-559.43 554.46,-513.05"/>
<polygon fill="#f91010" stroke="black" points="557.54,-511.38 549.67,-504.29 551.4,-514.74 557.54,-511.38"/>
</g>
<!-- nexus_service_integrations_wandb_finder -->
<g id="node18" class="node">
<title>nexus_service_integrations_wandb_finder</title><style>.edge>path:hover{stroke-width:8}</style>
<ellipse fill="#9d4343" stroke="black" cx="1030.5" cy="-466.44" rx="52.15" ry="39.6"/>
<text text-anchor="middle" x="1030.5" y="-480.94" font-family="Helvetica,sans-Serif" font-size="10.00" fill="#ffffff">nexus.</text>
<text text-anchor="middle" x="1030.5" y="-468.94" font-family="Helvetica,sans-Serif" font-size="10.00" fill="#ffffff">service.</text>
<text text-anchor="middle" x="1030.5" y="-456.94" font-family="Helvetica,sans-Serif" font-size="10.00" fill="#ffffff">integrations.</text>
<text text-anchor="middle" x="1030.5" y="-444.94" font-family="Helvetica,sans-Serif" font-size="10.00" fill="#ffffff">wandb_finder</text>
</g>
<!-- nexus_service_core&#45;&gt;nexus_service_integrations_wandb_finder -->
<g id="edge11" class="edge">
<title>nexus_service_core&#45;&gt;nexus_service_integrations_wandb_finder</title><style>.edge>path:hover{stroke-width:8}</style>
<path fill="none" stroke="black" d="M951.5,-580.64C969.23,-558.9 987.27,-533.37 1001.62,-512.06"/>
<polygon fill="#f91010" stroke="black" points="1004.46,-514.12 1007.1,-503.86 998.64,-510.23 1004.46,-514.12"/>
</g>
<!-- nexus_service_integrations_webhooks -->
<g id="node19" class="node">
<title>nexus_service_integrations_webhooks</title><style>.edge>path:hover{stroke-width:8}</style>
<ellipse fill="#964040" stroke="black" cx="795.5" cy="-466.44" rx="48.97" ry="39.6"/>
<text text-anchor="middle" x="795.5" y="-480.94" font-family="Helvetica,sans-Serif" font-size="10.00" fill="#ffffff">nexus.</text>
<text text-anchor="middle" x="795.5" y="-468.94" font-family="Helvetica,sans-Serif" font-size="10.00" fill="#ffffff">service.</text>
<text text-anchor="middle" x="795.5" y="-456.94" font-family="Helvetica,sans-Serif" font-size="10.00" fill="#ffffff">integrations.</text>
<text text-anchor="middle" x="795.5" y="-444.94" font-family="Helvetica,sans-Serif" font-size="10.00" fill="#ffffff">webhooks</text>
</g>
<!-- nexus_service_core&#45;&gt;nexus_service_integrations_webhooks -->
<g id="edge12" class="edge">
<title>nexus_service_core&#45;&gt;nexus_service_integrations_webhooks</title><style>.edge>path:hover{stroke-width:8}</style>
<path fill="none" stroke="black" d="M692.5,-580.64C699.12,-547.33 724.8,-519.07 748.86,-499.11"/>
<polygon fill="#f91010" stroke="black" points="750.79,-502.05 756.43,-493.09 746.43,-496.58 750.79,-502.05"/>
</g>
<!-- nexus_service_job -->
<g id="node20" class="node">
<title>nexus_service_job</title><style>.edge>path:hover{stroke-width:8}</style>
<ellipse fill="#a13535" stroke="black" cx="426.5" cy="-466.44" rx="35.71" ry="31.11"/>
<text text-anchor="middle" x="426.5" y="-474.94" font-family="Helvetica,sans-Serif" font-size="10.00" fill="#ffffff">nexus.</text>
<text text-anchor="middle" x="426.5" y="-462.94" font-family="Helvetica,sans-Serif" font-size="10.00" fill="#ffffff">service.</text>
<text text-anchor="middle" x="426.5" y="-450.94" font-family="Helvetica,sans-Serif" font-size="10.00" fill="#ffffff">job</text>
</g>
<!-- nexus_service_core&#45;&gt;nexus_service_job -->
<g id="edge13" class="edge">
<title>nexus_service_core&#45;&gt;nexus_service_job</title><style>.edge>path:hover{stroke-width:8}</style>
<path fill="none" stroke="black" d="M540.5,-580.64C508.94,-556.48 477.19,-524.14 455.25,-500.22"/>
<polygon fill="#f91010" stroke="black" points="457.95,-497.99 448.64,-492.93 452.77,-502.69 457.95,-497.99"/>
</g>
<!-- nexus_service_core&#45;&gt;nexus_service_main -->
<g id="edge14" class="edge">
<title>nexus_service_core&#45;&gt;nexus_service_main</title><style>.edge>path:hover{stroke-width:8}</style>
<path fill="none" stroke="black" d="M1386.5,-465.44C1372.53,-364.9 1416.75,-333.94 1386.5,-237.05"/>
</g>
<!-- nexus_service_state -->
<g id="node22" class="node">
<title>nexus_service_state</title><style>.edge>path:hover{stroke-width:8}</style>
<ellipse fill="#a13535" stroke="black" cx="248.5" cy="-466.44" rx="35.71" ry="31.11"/>
<text text-anchor="middle" x="248.5" y="-474.94" font-family="Helvetica,sans-Serif" font-size="10.00" fill="#ffffff">nexus.</text>
<text text-anchor="middle" x="248.5" y="-462.94" font-family="Helvetica,sans-Serif" font-size="10.00" fill="#ffffff">service.</text>
<text text-anchor="middle" x="248.5" y="-450.94" font-family="Helvetica,sans-Serif" font-size="10.00" fill="#ffffff">state</text>
</g>
<!-- nexus_service_core&#45;&gt;nexus_service_state -->
<g id="edge15" class="edge">
<title>nexus_service_core&#45;&gt;nexus_service_state</title><style>.edge>path:hover{stroke-width:8}</style>
<path fill="none" stroke="black" d="M628.33,-675.25C610.84,-660.94 587.78,-640.96 569.5,-621.23 554.91,-605.5 557.54,-595.68 540.5,-582.64"/>
<path fill="none" stroke="black" d="M540.5,-580.64C514.73,-560.91 508.72,-553.9 478.5,-542.04 400.12,-511.28 368.11,-543.09 292.5,-506.04 287.96,-503.82 283.53,-501 279.33,-497.91"/>
<polygon fill="#f91010" stroke="black" points="281.71,-495.33 271.73,-491.76 277.31,-500.77 281.71,-495.33"/>
</g>
<!-- nexus_service_utils_format -->
<g id="node24" class="node">
<title>nexus_service_utils_format</title><style>.edge>path:hover{stroke-width:8}</style>
<ellipse fill="#a83838" stroke="black" cx="159.5" cy="-466.44" rx="35.71" ry="39.6"/>
<text text-anchor="middle" x="159.5" y="-480.94" font-family="Helvetica,sans-Serif" font-size="10.00" fill="#ffffff">nexus.</text>
<text text-anchor="middle" x="159.5" y="-468.94" font-family="Helvetica,sans-Serif" font-size="10.00" fill="#ffffff">service.</text>
<text text-anchor="middle" x="159.5" y="-456.94" font-family="Helvetica,sans-Serif" font-size="10.00" fill="#ffffff">utils.</text>
<text text-anchor="middle" x="159.5" y="-444.94" font-family="Helvetica,sans-Serif" font-size="10.00" fill="#ffffff">format</text>
</g>
<!-- nexus_service_core&#45;&gt;nexus_service_utils_format -->
<g id="edge16" class="edge">
<title>nexus_service_core&#45;&gt;nexus_service_utils_format</title><style>.edge>path:hover{stroke-width:8}</style>
<path fill="none" stroke="black" d="M623.86,-680.4C597.18,-666.4 557.95,-644.46 526.5,-621.23 484.7,-590.37 487.34,-564.52 440.5,-542.04 344.45,-495.94 300.1,-550.98 203.5,-506.04 200.38,-504.59 197.31,-502.84 194.34,-500.91"/>
<polygon fill="#f91010" stroke="black" points="196.57,-498.2 186.44,-495.1 192.42,-503.84 196.57,-498.2"/>
</g>
<!-- nexus_service_core_config -->
<g id="node8" class="node">
<title>nexus_service_core_config</title><style>.edge>path:hover{stroke-width:8}</style>
<ellipse fill="#e72222" stroke="black" cx="1174.5" cy="-581.64" rx="35.71" ry="39.6"/>
<text text-anchor="middle" x="1174.5" y="-596.14" font-family="Helvetica,sans-Serif" font-size="10.00" fill="#ffffff">nexus.</text>
<text text-anchor="middle" x="1174.5" y="-584.14" font-family="Helvetica,sans-Serif" font-size="10.00" fill="#ffffff">service.</text>
<text text-anchor="middle" x="1174.5" y="-572.14" font-family="Helvetica,sans-Serif" font-size="10.00" fill="#ffffff">core.</text>
<text text-anchor="middle" x="1174.5" y="-560.14" font-family="Helvetica,sans-Serif" font-size="10.00" fill="#ffffff">config</text>
</g>
<!-- nexus_service_core_config&#45;&gt;nexus_service_api_router -->
<g id="edge17" class="edge">
<title>nexus_service_core_config&#45;&gt;nexus_service_api_router</title><style>.edge>path:hover{stroke-width:8}</style>
<path fill="none" stroke="black" d="M1152.12,-550.15C1143.68,-537.17 1134.84,-521.48 1129.5,-506.04 1107,-440.95 1131.96,-417.69 1110.5,-352.24"/>
</g>
<!-- nexus_service_core_config&#45;&gt;nexus_service_api_scheduler -->
<g id="edge18" class="edge">
<title>nexus_service_core_config&#45;&gt;nexus_service_api_scheduler</title><style>.edge>path:hover{stroke-width:8}</style>
<path fill="none" stroke="black" d="M1198.52,-552.16C1214.69,-530.52 1233.88,-499.16 1238.5,-467.44"/>
<path fill="none" stroke="black" d="M1238.5,-465.44C1246.45,-410.84 1197.31,-406.55 1187.5,-352.24"/>
</g>
<!-- nexus_service_core_context -->
<g id="node9" class="node">
<title>nexus_service_core_context</title><style>.edge>path:hover{stroke-width:8}</style>
<ellipse fill="#913030" stroke="black" cx="1174.5" cy="-466.44" rx="35.71" ry="39.6"/>
<text text-anchor="middle" x="1174.5" y="-480.94" font-family="Helvetica,sans-Serif" font-size="10.00" fill="#ffffff">nexus.</text>
<text text-anchor="middle" x="1174.5" y="-468.94" font-family="Helvetica,sans-Serif" font-size="10.00" fill="#ffffff">service.</text>
<text text-anchor="middle" x="1174.5" y="-456.94" font-family="Helvetica,sans-Serif" font-size="10.00" fill="#ffffff">core.</text>
<text text-anchor="middle" x="1174.5" y="-444.94" font-family="Helvetica,sans-Serif" font-size="10.00" fill="#ffffff">context</text>
</g>
<!-- nexus_service_core_config&#45;&gt;nexus_service_core_context -->
<g id="edge19" class="edge">
<title>nexus_service_core_config&#45;&gt;nexus_service_core_context</title><style>.edge>path:hover{stroke-width:8}</style>
<path fill="none" stroke="black" d="M1174.5,-541.68C1174.5,-534.03 1174.5,-525.91 1174.5,-517.94"/>
<polygon fill="#e72222" stroke="black" points="1178,-517.98 1174.5,-507.98 1171,-517.98 1178,-517.98"/>
</g>
<!-- nexus_service_core_config&#45;&gt;nexus_service_installation_setup -->
<g id="edge20" class="edge">
<title>nexus_service_core_config&#45;&gt;nexus_service_installation_setup</title><style>.edge>path:hover{stroke-width:8}</style>
<path fill="none" stroke="black" d="M1208.22,-567.52C1245.11,-550.84 1300.82,-517.98 1314.5,-467.44"/>
<path fill="none" stroke="black" d="M1314.5,-465.44C1319.97,-445.22 1320.54,-422.22 1319.34,-402.25"/>
<polygon fill="#e72222" stroke="black" points="1322.84,-402.1 1318.57,-392.4 1315.86,-402.64 1322.84,-402.1"/>
</g>
<!-- nexus_service_core_config&#45;&gt;nexus_service_main -->
<g id="edge21" class="edge">
<title>nexus_service_core_config&#45;&gt;nexus_service_main</title><style>.edge>path:hover{stroke-width:8}</style>
<path fill="none" stroke="black" d="M1238.5,-465.44C1245.75,-415.66 1260.71,-397.39 1238.5,-352.24"/>
</g>
<!-- nexus_service_core_context&#45;&gt;nexus_service_api_scheduler -->
<g id="edge22" class="edge">
<title>nexus_service_core_context&#45;&gt;nexus_service_api_scheduler</title><style>.edge>path:hover{stroke-width:8}</style>
<path fill="none" stroke="black" d="M1184.27,-428.05C1188.7,-405.9 1192.04,-377.36 1187.5,-352.24"/>
</g>
<!-- nexus_service_core_context&#45;&gt;nexus_service_main -->
<g id="edge23" class="edge">
<title>nexus_service_core_context&#45;&gt;nexus_service_main</title><style>.edge>path:hover{stroke-width:8}</style>
<path fill="none" stroke="black" d="M1202.91,-442.35C1227.55,-419.39 1256.62,-383.23 1238.5,-352.24"/>
<path fill="none" stroke="black" d="M1238.5,-350.24C1226.5,-329.73 1221.69,-324.18 1201.5,-311.65 1011.11,-193.46 898.05,-297.18 720.5,-160.45 707.96,-150.8 693.46,-143.97 701.5,-130.34"/>
</g>
<!-- nexus_service_core_env -->
<g id="node10" class="node">
<title>nexus_service_core_env</title><style>.edge>path:hover{stroke-width:8}</style>
<ellipse fill="#c24747" stroke="black" cx="1314.5" cy="-581.64" rx="35.71" ry="39.6"/>
<text text-anchor="middle" x="1314.5" y="-596.14" font-family="Helvetica,sans-Serif" font-size="10.00" fill="#ffffff">nexus.</text>
<text text-anchor="middle" x="1314.5" y="-584.14" font-family="Helvetica,sans-Serif" font-size="10.00" fill="#ffffff">service.</text>
<text text-anchor="middle" x="1314.5" y="-572.14" font-family="Helvetica,sans-Serif" font-size="10.00" fill="#ffffff">core.</text>
<text text-anchor="middle" x="1314.5" y="-560.14" font-family="Helvetica,sans-Serif" font-size="10.00" fill="#ffffff">env</text>
</g>
<!-- nexus_service_core_env&#45;&gt;nexus_service_core_context -->
<g id="edge24" class="edge">
<title>nexus_service_core_env&#45;&gt;nexus_service_core_context</title><style>.edge>path:hover{stroke-width:8}</style>
<path fill="none" stroke="black" d="M1285.83,-557.46C1264.5,-540.21 1235.2,-516.52 1212.01,-497.77"/>
<polygon fill="#c24747" stroke="black" points="1214.28,-495.11 1204.31,-491.54 1209.88,-500.55 1214.28,-495.11"/>
</g>
<!-- nexus_service_core_env&#45;&gt;nexus_service_installation_setup -->
<g id="edge25" class="edge">
<title>nexus_service_core_env&#45;&gt;nexus_service_installation_setup</title><style>.edge>path:hover{stroke-width:8}</style>
<path fill="none" stroke="black" d="M1309.55,-541.99C1307.93,-519.8 1307.95,-491.63 1314.5,-467.44"/>
</g>
<!-- nexus_service_core_logger -->
<g id="node11" class="node">
<title>nexus_service_core_logger</title><style>.edge>path:hover{stroke-width:8}</style>
<ellipse fill="#f91010" stroke="black" cx="350.5" cy="-696.83" rx="35.71" ry="39.6"/>
<text text-anchor="middle" x="350.5" y="-711.33" font-family="Helvetica,sans-Serif" font-size="10.00" fill="#ffffff">nexus.</text>
<text text-anchor="middle" x="350.5" y="-699.33" font-family="Helvetica,sans-Serif" font-size="10.00" fill="#ffffff">service.</text>
<text text-anchor="middle" x="350.5" y="-687.33" font-family="Helvetica,sans-Serif" font-size="10.00" fill="#ffffff">core.</text>
<text text-anchor="middle" x="350.5" y="-675.33" font-family="Helvetica,sans-Serif" font-size="10.00" fill="#ffffff">logger</text>
</g>
<!-- nexus_service_core_logger&#45;&gt;nexus_service_api_router -->
<g id="edge26" class="edge">
<title>nexus_service_core_logger&#45;&gt;nexus_service_api_router</title><style>.edge>path:hover{stroke-width:8}</style>
<path fill="none" stroke="black" d="M357.54,-657.74C360.04,-635.1 360.19,-606.28 350.5,-582.64"/>
</g>
<!-- nexus_service_core_logger&#45;&gt;nexus_service_core_context -->
<g id="edge27" class="edge">
<title>nexus_service_core_logger&#45;&gt;nexus_service_core_context</title><style>.edge>path:hover{stroke-width:8}</style>
<path fill="none" stroke="black" d="M386.11,-690.49C436.03,-683.01 529.67,-669 609.5,-657.23 719.25,-641.06 750.44,-653.76 856.5,-621.23 961.25,-589.11 1074.68,-526.91 1133.65,-492.27"/>
<polygon fill="#f91010" stroke="black" points="1135.2,-495.42 1142.02,-487.32 1131.63,-489.4 1135.2,-495.42"/>
</g>
<!-- nexus_service_core_logger&#45;&gt;nexus_service_integrations_git -->
<g id="edge28" class="edge">
<title>nexus_service_core_logger&#45;&gt;nexus_service_integrations_git</title><style>.edge>path:hover{stroke-width:8}</style>
<path fill="none" stroke="black" d="M385.09,-686.32C430.29,-673.48 511.56,-648.99 578.5,-621.23 613.5,-606.72 618.99,-595.83 654.5,-582.64"/>
<path fill="none" stroke="black" d="M654.5,-580.64C673.44,-573.6 661.93,-553.59 678.5,-542.04 743.64,-496.63 780.21,-536.6 853.5,-506.04 857.77,-504.26 862.06,-502.15 866.27,-499.85"/>
<polygon fill="#f91010" stroke="black" points="867.73,-503.04 874.58,-494.96 864.19,-497.01 867.73,-503.04"/>
</g>
<!-- nexus_service_core_logger&#45;&gt;nexus_service_integrations_gpu -->
<g id="edge29" class="edge">
<title>nexus_service_core_logger&#45;&gt;nexus_service_integrations_gpu</title><style>.edge>path:hover{stroke-width:8}</style>
<path fill="none" stroke="black" d="M380.8,-675C399.47,-661.18 423.08,-641.85 440.5,-621.23 468.17,-588.49 492.02,-545.98 508.05,-513.95"/>
<polygon fill="#f91010" stroke="black" points="511.03,-515.83 512.31,-505.31 504.75,-512.73 511.03,-515.83"/>
</g>
<!-- nexus_service_core_logger&#45;&gt;nexus_service_integrations_wandb_finder -->
<g id="edge30" class="edge">
<title>nexus_service_core_logger&#45;&gt;nexus_service_integrations_wandb_finder</title><style>.edge>path:hover{stroke-width:8}</style>
<path fill="none" stroke="black" d="M654.5,-580.64C673.44,-573.6 661.48,-552.92 678.5,-542.04 788.3,-471.85 846.8,-549.94 969.5,-506.04 974.21,-504.35 978.93,-502.26 983.54,-499.92"/>
<polygon fill="#f91010" stroke="black" points="985.04,-503.09 992.11,-495.2 981.66,-496.96 985.04,-503.09"/>
</g>
<!-- nexus_service_core_logger&#45;&gt;nexus_service_integrations_webhooks -->
<g id="edge31" class="edge">
<title>nexus_service_core_logger&#45;&gt;nexus_service_integrations_webhooks</title><style>.edge>path:hover{stroke-width:8}</style>
<path fill="none" stroke="black" d="M382,-677.35C434.52,-646.94 543.78,-585.41 640.5,-542.04 682.46,-523.23 696.53,-526.92 737.5,-506.04 741.45,-504.03 745.46,-501.8 749.42,-499.46"/>
<polygon fill="#f91010" stroke="black" points="751.18,-502.49 757.86,-494.27 747.51,-496.53 751.18,-502.49"/>
</g>
<!-- nexus_service_core_logger&#45;&gt;nexus_service_job -->
<g id="edge32" class="edge">
<title>nexus_service_core_logger&#45;&gt;nexus_service_job</title><style>.edge>path:hover{stroke-width:8}</style>
<path fill="none" stroke="black" d="M426.5,-580.64C425.62,-556.94 425.56,-530.44 425.76,-509.04"/>
<polygon fill="#f91010" stroke="black" points="429.26,-509.27 425.87,-499.23 422.26,-509.19 429.26,-509.27"/>
</g>
<!-- nexus_service_core_logger&#45;&gt;nexus_service_state -->
<g id="edge33" class="edge">
<title>nexus_service_core_logger&#45;&gt;nexus_service_state</title><style>.edge>path:hover{stroke-width:8}</style>
<path fill="none" stroke="black" d="M379.04,-672.35C401.15,-651.32 427.83,-618.35 426.5,-582.64"/>
<path fill="none" stroke="black" d="M426.5,-580.64C423.96,-512.52 351.71,-539.8 292.5,-506.04 288.33,-503.66 284.2,-500.85 280.24,-497.84"/>
<polygon fill="#f91010" stroke="black" points="282.48,-495.15 272.53,-491.53 278.05,-500.57 282.48,-495.15"/>
</g>
<!-- nexus_service_core_models -->
<g id="node12" class="node">
<title>nexus_service_core_models</title><style>.edge>path:hover{stroke-width:8}</style>
<ellipse fill="#f91010" stroke="black" cx="261.5" cy="-696.83" rx="35.71" ry="39.6"/>
<text text-anchor="middle" x="261.5" y="-711.33" font-family="Helvetica,sans-Serif" font-size="10.00" fill="#ffffff">nexus.</text>
<text text-anchor="middle" x="261.5" y="-699.33" font-family="Helvetica,sans-Serif" font-size="10.00" fill="#ffffff">service.</text>
<text text-anchor="middle" x="261.5" y="-687.33" font-family="Helvetica,sans-Serif" font-size="10.00" fill="#ffffff">core.</text>
<text text-anchor="middle" x="261.5" y="-675.33" font-family="Helvetica,sans-Serif" font-size="10.00" fill="#ffffff">models</text>
</g>
<!-- nexus_service_core_models&#45;&gt;nexus_service_api_router -->
<g id="edge34" class="edge">
<title>nexus_service_core_models&#45;&gt;nexus_service_api_router</title><style>.edge>path:hover{stroke-width:8}</style>
<path fill="none" stroke="black" d="M289.16,-671.3C318.13,-644.24 358.42,-601.95 350.5,-582.64"/>
<path fill="none" stroke="black" d="M350.5,-580.64C308.79,-478.85 179.51,-594.77 114.5,-506.04 93.7,-477.65 96.66,-457.19 114.5,-426.84 149.04,-368.08 197.83,-397.84 248.5,-352.24"/>
<path fill="none" stroke="black" d="M248.5,-350.24C263.32,-336.51 256.03,-323.34 272.5,-311.65 318.34,-279.12 478.85,-253.93 559.5,-242.99"/>
<polygon fill="#f91010" stroke="black" points="559.85,-246.48 569.3,-241.68 558.92,-239.54 559.85,-246.48"/>
</g>
<!-- nexus_service_core_models&#45;&gt;nexus_service_core_context -->
<g id="edge35" class="edge">
<title>nexus_service_core_models&#45;&gt;nexus_service_core_context</title><style>.edge>path:hover{stroke-width:8}</style>
<path fill="none" stroke="black" d="M287.31,-669.27C292.93,-664.66 299.11,-660.36 305.5,-657.23 465.27,-579.06 922.25,-560.75 1091.5,-506.04 1105.09,-501.65 1119.36,-495.58 1132.16,-489.56"/>
<polygon fill="#f91010" stroke="black" points="1133.68,-492.72 1141.16,-485.21 1130.64,-486.41 1133.68,-492.72"/>
</g>
<!-- nexus_service_core_models&#45;&gt;nexus_service_integrations_gpu -->
<g id="edge36" class="edge">
<title>nexus_service_core_models&#45;&gt;nexus_service_integrations_gpu</title><style>.edge>path:hover{stroke-width:8}</style>
<path fill="none" stroke="black" d="M388.5,-580.64C399.86,-563.93 398.16,-556.26 412.5,-542.04 434.31,-520.41 445.6,-522.55 471.5,-506.04 475.18,-503.69 478.98,-501.24 482.78,-498.76"/>
<polygon fill="#f91010" stroke="black" points="484.5,-501.82 490.94,-493.4 480.66,-495.97 484.5,-501.82"/>
</g>
<!-- nexus_service_core_models&#45;&gt;nexus_service_integrations_webhooks -->
<g id="edge37" class="edge">
<title>nexus_service_core_models&#45;&gt;nexus_service_integrations_webhooks</title><style>.edge>path:hover{stroke-width:8}</style>
<path fill="none" stroke="black" d="M388.5,-580.64C399.86,-563.93 395.41,-552.81 412.5,-542.04 535.44,-464.55 600.92,-555.7 737.5,-506.04 741.91,-504.43 746.32,-502.43 750.62,-500.18"/>
<polygon fill="#f91010" stroke="black" points="752.17,-503.33 759.11,-495.32 748.69,-497.25 752.17,-503.33"/>
</g>
<!-- nexus_service_core_models&#45;&gt;nexus_service_job -->
<g id="edge38" class="edge">
<title>nexus_service_core_models&#45;&gt;nexus_service_job</title><style>.edge>path:hover{stroke-width:8}</style>
<path fill="none" stroke="black" d="M388.5,-580.64C403.26,-558.93 412.71,-531.01 418.5,-508.33"/>
<polygon fill="#f91010" stroke="black" points="421.86,-509.35 420.78,-498.81 415.05,-507.72 421.86,-509.35"/>
</g>
<!-- nexus_service_core_models&#45;&gt;nexus_service_state -->
<g id="edge39" class="edge">
<title>nexus_service_core_models&#45;&gt;nexus_service_state</title><style>.edge>path:hover{stroke-width:8}</style>
<path fill="none" stroke="black" d="M388.5,-580.64C415.91,-540.33 317.11,-522.58 292.5,-506.04 288.61,-503.42 284.69,-500.5 280.89,-497.46"/>
<polygon fill="#f91010" stroke="black" points="283.34,-494.95 273.43,-491.22 278.85,-500.32 283.34,-494.95"/>
</g>
<!-- nexus_service_core_models&#45;&gt;nexus_service_utils_format -->
<g id="edge40" class="edge">
<title>nexus_service_core_models&#45;&gt;nexus_service_utils_format</title><style>.edge>path:hover{stroke-width:8}</style>
<path fill="none" stroke="black" d="M288.83,-670.58C294.22,-665.97 299.93,-661.33 305.5,-657.23 330.25,-639.04 342.69,-642.86 364.5,-621.23 378.84,-607.01 377.14,-599.34 388.5,-582.64"/>
<path fill="none" stroke="black" d="M388.5,-580.64C399.86,-563.93 380.97,-553.73 364.5,-542.04 304.71,-499.6 268.87,-539.25 203.5,-506.04 200.43,-504.48 197.4,-502.65 194.45,-500.66"/>
<polygon fill="#f91010" stroke="black" points="196.7,-497.97 186.6,-494.77 192.49,-503.57 196.7,-497.97"/>
</g>
<!-- nexus_service_installation -->
<g id="node13" class="node">
<title>nexus_service_installation</title><style>.edge>path:hover{stroke-width:8}</style>
<ellipse fill="#b65353" stroke="black" cx="773.5" cy="-129.34" rx="44.19" ry="31.11"/>
<text text-anchor="middle" x="773.5" y="-137.84" font-family="Helvetica,sans-Serif" font-size="10.00" fill="#ffffff">nexus.</text>
<text text-anchor="middle" x="773.5" y="-125.84" font-family="Helvetica,sans-Serif" font-size="10.00" fill="#ffffff">service.</text>
<text text-anchor="middle" x="773.5" y="-113.84" font-family="Helvetica,sans-Serif" font-size="10.00" fill="#ffffff">installation</text>
</g>
<!-- nexus_service_installation&#45;&gt;nexus_service_main -->
<g id="edge41" class="edge">
<title>nexus_service_installation&#45;&gt;nexus_service_main</title><style>.edge>path:hover{stroke-width:8}</style>
<path fill="none" stroke="black" d="M762.5,-98.94C759.26,-90.28 755.66,-80.67 752.23,-71.49"/>
<polygon fill="#b65353" stroke="black" points="755.62,-70.55 748.84,-62.41 749.06,-73.01 755.62,-70.55"/>
</g>
<!-- nexus_service_installation_setup&#45;&gt;nexus_service_main -->
<g id="edge42" class="edge">
<title>nexus_service_installation_setup&#45;&gt;nexus_service_main</title><style>.edge>path:hover{stroke-width:8}</style>
<path fill="none" stroke="black" d="M1341.98,-320.67C1360.37,-299.45 1381.49,-269.06 1386.5,-237.05"/>
<path fill="none" stroke="black" d="M1386.5,-235.05C1406.11,-109.87 936.53,-51.93 784.35,-36.49"/>
<polygon fill="#964040" stroke="black" points="784.92,-33.03 774.62,-35.52 784.22,-39.99 784.92,-33.03"/>
</g>
<!-- nexus_service_integrations -->
<g id="node15" class="node">
<title>nexus_service_integrations</title><style>.edge>path:hover{stroke-width:8}</style>
<ellipse fill="#c24747" stroke="black" cx="681.5" cy="-466.44" rx="46.85" ry="31.11"/>
<text text-anchor="middle" x="681.5" y="-474.94" font-family="Helvetica,sans-Serif" font-size="10.00" fill="#ffffff">nexus.</text>
<text text-anchor="middle" x="681.5" y="-462.94" font-family="Helvetica,sans-Serif" font-size="10.00" fill="#ffffff">service.</text>
<text text-anchor="middle" x="681.5" y="-450.94" font-family="Helvetica,sans-Serif" font-size="10.00" fill="#ffffff">integrations</text>
</g>
<!-- nexus_service_integrations&#45;&gt;nexus_service_api_router -->
<g id="edge43" class="edge">
<title>nexus_service_integrations&#45;&gt;nexus_service_api_router</title><style>.edge>path:hover{stroke-width:8}</style>
<path fill="none" stroke="black" d="M671.7,-435.58C659.08,-397.16 637.01,-329.94 622.08,-284.48"/>
<polygon fill="#c24747" stroke="black" points="625.46,-283.56 619.01,-275.15 618.81,-285.74 625.46,-283.56"/>
</g>
<!-- nexus_service_integrations&#45;&gt;nexus_service_api_scheduler -->
<g id="edge44" class="edge">
<title>nexus_service_integrations&#45;&gt;nexus_service_api_scheduler</title><style>.edge>path:hover{stroke-width:8}</style>
<path fill="none" stroke="black" d="M710.16,-441.57C718.5,-435.8 727.95,-430.31 737.5,-426.84 832.78,-392.26 1205.52,-452 1187.5,-352.24"/>
<path fill="none" stroke="black" d="M1187.5,-350.24C1181.66,-317.93 1155.63,-322.09 1124.5,-311.65 968.69,-259.39 910.61,-332.73 756.5,-275.65 751.5,-273.79 746.53,-271.37 741.74,-268.64"/>
<polygon fill="#c24747" stroke="black" points="743.83,-265.82 733.5,-263.5 740.13,-271.76 743.83,-265.82"/>
</g>
<!-- nexus_service_integrations_git&#45;&gt;nexus_service_api_router -->
<g id="edge45" class="edge">
<title>nexus_service_integrations_git&#45;&gt;nexus_service_api_router</title><style>.edge>path:hover{stroke-width:8}</style>
<path fill="none" stroke="black" d="M948.59,-439.96C955.46,-435.47 962.64,-430.93 969.5,-426.84 1030.42,-390.58 1132.59,-419.61 1110.5,-352.24"/>
<path fill="none" stroke="black" d="M1110.5,-350.24C1078.3,-252.05 745.21,-319.2 651.5,-275.65 648.14,-274.09 644.83,-272.2 641.64,-270.11"/>
<polygon fill="#a83838" stroke="black" points="643.77,-267.33 633.63,-264.26 639.64,-272.99 643.77,-267.33"/>
</g>
<!-- nexus_service_integrations_git&#45;&gt;nexus_service_api_scheduler -->
<g id="edge46" class="edge">
<title>nexus_service_integrations_git&#45;&gt;nexus_service_api_scheduler</title><style>.edge>path:hover{stroke-width:8}</style>
<path fill="none" stroke="black" d="M947.18,-438.84C954.32,-434.36 961.95,-430.1 969.5,-426.84 1063.51,-386.24 1205.7,-453.02 1187.5,-352.24"/>
</g>
<!-- nexus_service_integrations_gpu&#45;&gt;nexus_service_api_router -->
<g id="edge47" class="edge">
<title>nexus_service_integrations_gpu&#45;&gt;nexus_service_api_router</title><style>.edge>path:hover{stroke-width:8}</style>
<path fill="none" stroke="black" d="M560.56,-435.64C579.59,-414.54 601.27,-384.38 606.5,-352.24"/>
<path fill="none" stroke="black" d="M606.5,-350.24C609.84,-329.73 610.42,-306.85 609.95,-287.06"/>
<polygon fill="#a13535" stroke="black" points="613.46,-287.19 609.62,-277.32 606.46,-287.43 613.46,-287.19"/>
</g>
<!-- nexus_service_integrations_gpu&#45;&gt;nexus_service_api_scheduler -->
<g id="edge48" class="edge">
<title>nexus_service_integrations_gpu&#45;&gt;nexus_service_api_scheduler</title><style>.edge>path:hover{stroke-width:8}</style>
<path fill="none" stroke="black" d="M574.37,-449.7C602.4,-437.68 637.1,-418.44 658.5,-390.84 681.68,-360.95 692.36,-319.25 697.29,-286.81"/>
<polygon fill="#a13535" stroke="black" points="700.71,-287.64 698.6,-277.25 693.77,-286.69 700.71,-287.64"/>
</g>
<!-- nexus_service_integrations_wandb_finder&#45;&gt;nexus_service_api_scheduler -->
<g id="edge49" class="edge">
<title>nexus_service_integrations_wandb_finder&#45;&gt;nexus_service_api_scheduler</title><style>.edge>path:hover{stroke-width:8}</style>
<path fill="none" stroke="black" d="M1074.32,-444.79C1122.51,-420.57 1192.55,-380.19 1187.5,-352.24"/>
</g>
<!-- nexus_service_integrations_webhooks&#45;&gt;nexus_service_api_scheduler -->
<g id="edge50" class="edge">
<title>nexus_service_integrations_webhooks&#45;&gt;nexus_service_api_scheduler</title><style>.edge>path:hover{stroke-width:8}</style>
<path fill="none" stroke="black" d="M830.63,-438.44C837.87,-433.94 845.69,-429.78 853.5,-426.84 924.69,-400.08 1201.02,-427.08 1187.5,-352.24"/>
</g>
<!-- nexus_service_job&#45;&gt;nexus_service_api_router -->
<g id="edge51" class="edge">
<title>nexus_service_job&#45;&gt;nexus_service_api_router</title><style>.edge>path:hover{stroke-width:8}</style>
<path fill="none" stroke="black" d="M446.45,-440.13C477.94,-400.17 539.39,-322.21 576.3,-275.36"/>
<polygon fill="#a13535" stroke="black" points="578.97,-277.64 582.41,-267.62 573.47,-273.31 578.97,-277.64"/>
</g>
<!-- nexus_service_job&#45;&gt;nexus_service_api_scheduler -->
<g id="edge52" class="edge">
<title>nexus_service_job&#45;&gt;nexus_service_api_scheduler</title><style>.edge>path:hover{stroke-width:8}</style>
<path fill="none" stroke="black" d="M449.25,-442.32C455.96,-436.55 463.62,-430.88 471.5,-426.84 532.15,-395.81 567.54,-433.69 620.5,-390.84 650.85,-366.29 640.29,-346.18 658.5,-311.65 663.83,-301.53 669.82,-290.8 675.59,-280.72"/>
<polygon fill="#a13535" stroke="black" points="678.53,-282.63 680.5,-272.22 672.47,-279.13 678.53,-282.63"/>
</g>
<!-- nexus_service_state&#45;&gt;nexus_service_api_scheduler -->
<g id="edge53" class="edge">
<title>nexus_service_state&#45;&gt;nexus_service_api_scheduler</title><style>.edge>path:hover{stroke-width:8}</style>
<path fill="none" stroke="black" d="M254.42,-435.31C261.03,-405.17 272.65,-361.92 286.5,-352.24"/>
</g>
<!-- nexus_service_state&#45;&gt;nexus_service_main -->
<g id="edge54" class="edge">
<title>nexus_service_state&#45;&gt;nexus_service_main</title><style>.edge>path:hover{stroke-width:8}</style>
<path fill="none" stroke="black" d="M235.68,-437.04C222.81,-403.81 208.32,-348.63 234.5,-311.65 323.53,-185.88 414.94,-244.03 561.5,-196.45 626.95,-175.2 675.9,-194.21 701.5,-130.34"/>
<path fill="none" stroke="black" d="M701.5,-128.34C707.84,-109.43 715.51,-88.69 722.13,-71.32"/>
<polygon fill="#a13535" stroke="black" points="725.24,-72.98 725.56,-62.39 718.71,-70.47 725.24,-72.98"/>
</g>
<!-- nexus_service_utils -->
<g id="node23" class="node">
<title>nexus_service_utils</title><style>.edge>path:hover{stroke-width:8}</style>
<ellipse fill="#c24747" stroke="black" cx="337.5" cy="-466.44" rx="35.71" ry="31.11"/>
<text text-anchor="middle" x="337.5" y="-474.94" font-family="Helvetica,sans-Serif" font-size="10.00" fill="#ffffff">nexus.</text>
<text text-anchor="middle" x="337.5" y="-462.94" font-family="Helvetica,sans-Serif" font-size="10.00" fill="#ffffff">service.</text>
<text text-anchor="middle" x="337.5" y="-450.94" font-family="Helvetica,sans-Serif" font-size="10.00" fill="#ffffff">utils</text>
</g>
<!-- nexus_service_utils&#45;&gt;nexus_service_api_router -->
<g id="edge55" class="edge">
<title>nexus_service_utils&#45;&gt;nexus_service_api_router</title><style>.edge>path:hover{stroke-width:8}</style>
<path fill="none" stroke="black" d="M312.34,-443.74C280.62,-415.22 232.1,-367 248.5,-352.24"/>
</g>
<!-- nexus_service_utils&#45;&gt;nexus_service_api_scheduler -->
<g id="edge56" class="edge">
<title>nexus_service_utils&#45;&gt;nexus_service_api_scheduler</title><style>.edge>path:hover{stroke-width:8}</style>
<path fill="none" stroke="black" d="M361.42,-442.85C367.74,-437.34 374.7,-431.65 381.5,-426.84 493.81,-347.46 536.76,-351.47 651.5,-275.65 654.71,-273.53 657.97,-271.26 661.22,-268.94"/>
<polygon fill="#c24747" stroke="black" points="663.08,-271.92 669.06,-263.17 658.93,-266.28 663.08,-271.92"/>
</g>
<!-- nexus_service_utils_format&#45;&gt;nexus_service_api_router -->
<g id="edge57" class="edge">
<title>nexus_service_utils_format&#45;&gt;nexus_service_api_router</title><style>.edge>path:hover{stroke-width:8}</style>
<path fill="none" stroke="black" d="M179.99,-433.73C196.58,-409.58 221.55,-376.49 248.5,-352.24"/>
</g>
<!-- nexus_service_utils_format&#45;&gt;nexus_service_api_scheduler -->
<g id="edge58" class="edge">
<title>nexus_service_utils_format&#45;&gt;nexus_service_api_scheduler</title><style>.edge>path:hover{stroke-width:8}</style>
<path fill="none" stroke="black" d="M186.83,-440.19C192.22,-435.58 197.93,-430.94 203.5,-426.84 228.25,-408.65 240.69,-412.47 262.5,-390.84 276.84,-376.62 269.94,-363.82 286.5,-352.24"/>
<path fill="none" stroke="black" d="M286.5,-350.24C422.21,-255.39 499.81,-342.01 651.5,-275.65 655.13,-274.06 658.72,-272.15 662.23,-270.05"/>
<polygon fill="#a83838" stroke="black" points="664.15,-272.98 670.55,-264.53 660.28,-267.14 664.15,-272.98"/>
</g>
</g>
</svg>
