<?xml version="1.0" encoding="UTF-8" standalone="no"?>
<!DOCTYPE svg PUBLIC "-//W3C//DTD SVG 1.1//EN"
 "http://www.w3.org/Graphics/SVG/1.1/DTD/svg11.dtd">
<!-- Generated by graphviz version 9.0.0 (20230911.1827)
 -->
<!-- Title: G Pages: 1 -->
<svg width="1448pt" height="744pt"
 viewBox="0.00 0.00 1447.89 744.43" xmlns="http://www.w3.org/2000/svg" xmlns:xlink="http://www.w3.org/1999/xlink">
<g id="graph0" class="graph" transform="scale(1 1) rotate(0) translate(4 740.43)">
<title>G</title><style>.edge>path:hover{stroke-width:8}</style>
<polygon fill="white" stroke="none" points="-4,4 -4,-740.43 1443.89,-740.43 1443.89,4 -4,4"/>
<!-- nexus_cli -->
<g id="node1" class="node">
<title>nexus_cli</title><style>.edge>path:hover{stroke-width:8}</style>
<polygon fill="blue" stroke="black" points="67,-484.44 12,-484.44 12,-448.44 67,-448.44 67,-484.44"/>
<text text-anchor="middle" x="39.5" y="-462.94" font-family="Helvetica,sans-Serif" font-size="10.00" fill="white">nexus.cli</text>
</g>
<!-- nexus_cli_config -->
<g id="node2" class="node">
<title>nexus_cli_config</title><style>.edge>path:hover{stroke-width:8}</style>
<ellipse fill="#b65353" stroke="black" cx="39.5" cy="-696.83" rx="32" ry="31.11"/>
<text text-anchor="middle" x="39.5" y="-705.33" font-family="Helvetica,sans-Serif" font-size="10.00" fill="#ffffff">nexus.</text>
<text text-anchor="middle" x="39.5" y="-693.33" font-family="Helvetica,sans-Serif" font-size="10.00" fill="#ffffff">cli.</text>
<text text-anchor="middle" x="39.5" y="-681.33" font-family="Helvetica,sans-Serif" font-size="10.00" fill="#ffffff">config</text>
</g>
<!-- nexus_cli_main -->
<g id="node3" class="node">
<title>nexus_cli_main</title><style>.edge>path:hover{stroke-width:8}</style>
<polygon fill="blue" stroke="black" points="79,-599.64 0,-599.64 0,-563.64 79,-563.64 79,-599.64"/>
<text text-anchor="middle" x="39.5" y="-578.14" font-family="Helvetica,sans-Serif" font-size="10.00" fill="white">nexus.cli.main</text>
</g>
<!-- nexus_cli_config&#45;&gt;nexus_cli_main -->
<g id="edge1" class="edge">
<title>nexus_cli_config&#45;&gt;nexus_cli_main</title><style>.edge>path:hover{stroke-width:8}</style>
<path fill="none" stroke="black" d="M39.5,-665.5C39.5,-648.63 39.5,-627.77 39.5,-611.2"/>
<polygon fill="#b65353" stroke="black" points="43,-611.53 39.5,-601.53 36,-611.53 43,-611.53"/>
</g>
<!-- nexus_cli_main&#45;&gt;nexus_cli -->
<g id="edge2" class="edge">
<title>nexus_cli_main&#45;&gt;nexus_cli</title><style>.edge>path:hover{stroke-width:8}</style>
<path fill="none" stroke="black" d="M39.5,-563.44C39.5,-545.58 39.5,-517.31 39.5,-496.06"/>
<polygon fill="blue" stroke="black" points="43,-496.31 39.5,-486.31 36,-496.31 43,-496.31"/>
</g>
<!-- nexus_service_api -->
<g id="node4" class="node">
<title>nexus_service_api</title><style>.edge>path:hover{stroke-width:8}</style>
<ellipse fill="#c24747" stroke="black" cx="795.5" cy="-129.34" rx="35.71" ry="31.11"/>
<text text-anchor="middle" x="795.5" y="-137.84" font-family="Helvetica,sans-Serif" font-size="10.00" fill="#ffffff">nexus.</text>
<text text-anchor="middle" x="795.5" y="-125.84" font-family="Helvetica,sans-Serif" font-size="10.00" fill="#ffffff">service.</text>
<text text-anchor="middle" x="795.5" y="-113.84" font-family="Helvetica,sans-Serif" font-size="10.00" fill="#ffffff">api</text>
</g>
<!-- nexus_service_main -->
<g id="node24" class="node">
<title>nexus_service_main</title><style>.edge>path:hover{stroke-width:8}</style>
<ellipse fill="#633535" stroke="black" cx="895.5" cy="-31.11" rx="35.71" ry="31.11"/>
<text text-anchor="middle" x="895.5" y="-39.61" font-family="Helvetica,sans-Serif" font-size="10.00" fill="#ffffff">nexus.</text>
<text text-anchor="middle" x="895.5" y="-27.61" font-family="Helvetica,sans-Serif" font-size="10.00" fill="#ffffff">service.</text>
<text text-anchor="middle" x="895.5" y="-15.61" font-family="Helvetica,sans-Serif" font-size="10.00" fill="#ffffff">main</text>
</g>
<!-- nexus_service_api&#45;&gt;nexus_service_main -->
<g id="edge3" class="edge">
<title>nexus_service_api&#45;&gt;nexus_service_main</title><style>.edge>path:hover{stroke-width:8}</style>
<path fill="none" stroke="black" d="M819.2,-105.53C832.52,-92.71 849.33,-76.54 863.78,-62.63"/>
<polygon fill="#c24747" stroke="black" points="866.1,-65.26 870.88,-55.8 861.25,-60.21 866.1,-65.26"/>
</g>
<!-- nexus_service_api_router -->
<g id="node5" class="node">
<title>nexus_service_api_router</title><style>.edge>path:hover{stroke-width:8}</style>
<ellipse fill="#6b2e2e" stroke="black" cx="400.5" cy="-236.05" rx="35.71" ry="39.6"/>
<text text-anchor="middle" x="400.5" y="-250.55" font-family="Helvetica,sans-Serif" font-size="10.00" fill="#ffffff">nexus.</text>
<text text-anchor="middle" x="400.5" y="-238.55" font-family="Helvetica,sans-Serif" font-size="10.00" fill="#ffffff">service.</text>
<text text-anchor="middle" x="400.5" y="-226.55" font-family="Helvetica,sans-Serif" font-size="10.00" fill="#ffffff">api.</text>
<text text-anchor="middle" x="400.5" y="-214.55" font-family="Helvetica,sans-Serif" font-size="10.00" fill="#ffffff">router</text>
</g>
<!-- nexus_service_api_router&#45;&gt;nexus_service_main -->
<g id="edge4" class="edge">
<title>nexus_service_api_router&#45;&gt;nexus_service_main</title><style>.edge>path:hover{stroke-width:8}</style>
<path fill="none" stroke="black" d="M436.36,-232.71C529.06,-226.1 774.02,-204.77 840.5,-160.45 853.67,-151.67 850.74,-143.52 859.5,-130.34"/>
<path fill="none" stroke="black" d="M859.5,-128.34C870.65,-111.56 878.96,-90.87 884.78,-72.97"/>
<polygon fill="#6b2e2e" stroke="black" points="888.12,-74 887.72,-63.41 881.43,-71.94 888.12,-74"/>
</g>
<!-- nexus_service_api_scheduler -->
<g id="node6" class="node">
<title>nexus_service_api_scheduler</title><style>.edge>path:hover{stroke-width:8}</style>
<ellipse fill="#6b2e2e" stroke="black" cx="859.5" cy="-236.05" rx="41.01" ry="39.6"/>
<text text-anchor="middle" x="859.5" y="-250.55" font-family="Helvetica,sans-Serif" font-size="10.00" fill="#ffffff">nexus.</text>
<text text-anchor="middle" x="859.5" y="-238.55" font-family="Helvetica,sans-Serif" font-size="10.00" fill="#ffffff">service.</text>
<text text-anchor="middle" x="859.5" y="-226.55" font-family="Helvetica,sans-Serif" font-size="10.00" fill="#ffffff">api.</text>
<text text-anchor="middle" x="859.5" y="-214.55" font-family="Helvetica,sans-Serif" font-size="10.00" fill="#ffffff">scheduler</text>
</g>
<!-- nexus_service_api_scheduler&#45;&gt;nexus_service_main -->
<g id="edge5" class="edge">
<title>nexus_service_api_scheduler&#45;&gt;nexus_service_main</title><style>.edge>path:hover{stroke-width:8}</style>
<path fill="none" stroke="black" d="M849.84,-197.23C846.62,-175.9 846.62,-149.72 859.5,-130.34"/>
</g>
<!-- nexus_service_api_schemas -->
<g id="node7" class="node">
<title>nexus_service_api_schemas</title><style>.edge>path:hover{stroke-width:8}</style>
<ellipse fill="#b65353" stroke="black" cx="333.5" cy="-351.24" rx="39.42" ry="39.6"/>
<text text-anchor="middle" x="333.5" y="-365.74" font-family="Helvetica,sans-Serif" font-size="10.00" fill="#ffffff">nexus.</text>
<text text-anchor="middle" x="333.5" y="-353.74" font-family="Helvetica,sans-Serif" font-size="10.00" fill="#ffffff">service.</text>
<text text-anchor="middle" x="333.5" y="-341.74" font-family="Helvetica,sans-Serif" font-size="10.00" fill="#ffffff">api.</text>
<text text-anchor="middle" x="333.5" y="-329.74" font-family="Helvetica,sans-Serif" font-size="10.00" fill="#ffffff">schemas</text>
</g>
<!-- nexus_service_api_schemas&#45;&gt;nexus_service_api_router -->
<g id="edge6" class="edge">
<title>nexus_service_api_schemas&#45;&gt;nexus_service_api_router</title><style>.edge>path:hover{stroke-width:8}</style>
<path fill="none" stroke="black" d="M353.42,-316.59C360.36,-304.86 368.24,-291.56 375.53,-279.23"/>
<polygon fill="#b65353" stroke="black" points="378.38,-281.29 380.46,-270.9 372.36,-277.73 378.38,-281.29"/>
</g>
<!-- nexus_service_core -->
<g id="node8" class="node">
<title>nexus_service_core</title><style>.edge>path:hover{stroke-width:8}</style>
<ellipse fill="#f91010" stroke="black" cx="438.5" cy="-696.83" rx="35.71" ry="31.11"/>
<text text-anchor="middle" x="438.5" y="-705.33" font-family="Helvetica,sans-Serif" font-size="10.00" fill="#ffffff">nexus.</text>
<text text-anchor="middle" x="438.5" y="-693.33" font-family="Helvetica,sans-Serif" font-size="10.00" fill="#ffffff">service.</text>
<text text-anchor="middle" x="438.5" y="-681.33" font-family="Helvetica,sans-Serif" font-size="10.00" fill="#ffffff">core</text>
</g>
<!-- nexus_service_core&#45;&gt;nexus_service_api_router -->
<g id="edge7" class="edge">
<title>nexus_service_core&#45;&gt;nexus_service_api_router</title><style>.edge>path:hover{stroke-width:8}</style>
<path fill="none" stroke="black" d="M248.5,-580.64C204.11,-528.63 210.45,-480.76 252.5,-426.84 289.1,-379.9 335.7,-428.86 381.5,-390.84 396.21,-378.63 402.19,-371.29 400.5,-352.24"/>
<path fill="none" stroke="black" d="M400.5,-350.24C398.65,-329.73 398.31,-307.03 398.56,-287.38"/>
<polygon fill="#f91010" stroke="black" points="402.06,-287.47 398.75,-277.41 395.06,-287.34 402.06,-287.47"/>
</g>
<!-- nexus_service_core&#45;&gt;nexus_service_api_scheduler -->
<g id="edge8" class="edge">
<title>nexus_service_core&#45;&gt;nexus_service_api_scheduler</title><style>.edge>path:hover{stroke-width:8}</style>
<path fill="none" stroke="black" d="M1033.5,-580.64C1079.17,-528.58 1018.11,-483.1 1058.5,-426.84 1099.85,-369.25 1228.59,-416.9 1199.5,-352.24"/>
<path fill="none" stroke="black" d="M1199.5,-350.24C1175.81,-299.01 1133.01,-326.29 1078.5,-311.65 1006.43,-292.29 982.82,-305.67 914.5,-275.65 909.68,-273.53 904.85,-270.96 900.17,-268.16"/>
<polygon fill="#f91010" stroke="black" points="902.38,-265.42 892.07,-262.99 898.61,-271.32 902.38,-265.42"/>
</g>
<!-- nexus_service_installation_setup -->
<g id="node17" class="node">
<title>nexus_service_installation_setup</title><style>.edge>path:hover{stroke-width:8}</style>
<ellipse fill="#964040" stroke="black" cx="1349.5" cy="-466.44" rx="46.32" ry="39.6"/>
<text text-anchor="middle" x="1349.5" y="-480.94" font-family="Helvetica,sans-Serif" font-size="10.00" fill="#ffffff">nexus.</text>
<text text-anchor="middle" x="1349.5" y="-468.94" font-family="Helvetica,sans-Serif" font-size="10.00" fill="#ffffff">service.</text>
<text text-anchor="middle" x="1349.5" y="-456.94" font-family="Helvetica,sans-Serif" font-size="10.00" fill="#ffffff">installation.</text>
<text text-anchor="middle" x="1349.5" y="-444.94" font-family="Helvetica,sans-Serif" font-size="10.00" fill="#ffffff">setup</text>
</g>
<!-- nexus_service_core&#45;&gt;nexus_service_installation_setup -->
<g id="edge9" class="edge">
<title>nexus_service_core&#45;&gt;nexus_service_installation_setup</title><style>.edge>path:hover{stroke-width:8}</style>
<path fill="none" stroke="black" d="M474.1,-691.79C538.17,-684.57 677.13,-669.07 794.5,-657.23 880.22,-648.59 1102.32,-657.43 1180.5,-621.23 1226.19,-600.08 1224.27,-575.94 1261.5,-542.04 1276.35,-528.51 1293.08,-514.13 1307.93,-501.64"/>
<polygon fill="#f91010" stroke="black" points="1309.84,-504.61 1315.27,-495.5 1305.35,-499.24 1309.84,-504.61"/>
</g>
<!-- nexus_service_integrations_git -->
<g id="node19" class="node">
<title>nexus_service_integrations_git</title><style>.edge>path:hover{stroke-width:8}</style>
<ellipse fill="#a13535" stroke="black" cx="516.5" cy="-466.44" rx="48.97" ry="39.6"/>
<text text-anchor="middle" x="516.5" y="-480.94" font-family="Helvetica,sans-Serif" font-size="10.00" fill="#ffffff">nexus.</text>
<text text-anchor="middle" x="516.5" y="-468.94" font-family="Helvetica,sans-Serif" font-size="10.00" fill="#ffffff">service.</text>
<text text-anchor="middle" x="516.5" y="-456.94" font-family="Helvetica,sans-Serif" font-size="10.00" fill="#ffffff">integrations.</text>
<text text-anchor="middle" x="516.5" y="-444.94" font-family="Helvetica,sans-Serif" font-size="10.00" fill="#ffffff">git</text>
</g>
<!-- nexus_service_core&#45;&gt;nexus_service_integrations_git -->
<g id="edge10" class="edge">
<title>nexus_service_core&#45;&gt;nexus_service_integrations_git</title><style>.edge>path:hover{stroke-width:8}</style>
<path fill="none" stroke="black" d="M438.5,-580.64C440.97,-551.92 458.47,-525.11 476.26,-504.8"/>
<polygon fill="#f91010" stroke="black" points="478.66,-507.36 482.84,-497.62 473.5,-502.63 478.66,-507.36"/>
</g>
<!-- nexus_service_integrations_gpu -->
<g id="node20" class="node">
<title>nexus_service_integrations_gpu</title><style>.edge>path:hover{stroke-width:8}</style>
<ellipse fill="#993333" stroke="black" cx="400.5" cy="-466.44" rx="48.97" ry="39.6"/>
<text text-anchor="middle" x="400.5" y="-480.94" font-family="Helvetica,sans-Serif" font-size="10.00" fill="#ffffff">nexus.</text>
<text text-anchor="middle" x="400.5" y="-468.94" font-family="Helvetica,sans-Serif" font-size="10.00" fill="#ffffff">service.</text>
<text text-anchor="middle" x="400.5" y="-456.94" font-family="Helvetica,sans-Serif" font-size="10.00" fill="#ffffff">integrations.</text>
<text text-anchor="middle" x="400.5" y="-444.94" font-family="Helvetica,sans-Serif" font-size="10.00" fill="#ffffff">gpu</text>
</g>
<!-- nexus_service_core&#45;&gt;nexus_service_integrations_gpu -->
<g id="edge11" class="edge">
<title>nexus_service_core&#45;&gt;nexus_service_integrations_gpu</title><style>.edge>path:hover{stroke-width:8}</style>
<path fill="none" stroke="black" d="M437.09,-665.5C436.37,-642.67 436.09,-610.64 438.5,-582.64"/>
<path fill="none" stroke="black" d="M438.5,-580.64C440.47,-557.79 433.64,-533.55 425.25,-513.39"/>
<polygon fill="#f91010" stroke="black" points="428.49,-512.05 421.23,-504.33 422.09,-514.89 428.49,-512.05"/>
</g>
<!-- nexus_service_integrations_wandb_finder -->
<g id="node21" class="node">
<title>nexus_service_integrations_wandb_finder</title><style>.edge>path:hover{stroke-width:8}</style>
<ellipse fill="#9d4343" stroke="black" cx="1119.5" cy="-466.44" rx="52.15" ry="39.6"/>
<text text-anchor="middle" x="1119.5" y="-480.94" font-family="Helvetica,sans-Serif" font-size="10.00" fill="#ffffff">nexus.</text>
<text text-anchor="middle" x="1119.5" y="-468.94" font-family="Helvetica,sans-Serif" font-size="10.00" fill="#ffffff">service.</text>
<text text-anchor="middle" x="1119.5" y="-456.94" font-family="Helvetica,sans-Serif" font-size="10.00" fill="#ffffff">integrations.</text>
<text text-anchor="middle" x="1119.5" y="-444.94" font-family="Helvetica,sans-Serif" font-size="10.00" fill="#ffffff">wandb_finder</text>
</g>
<!-- nexus_service_core&#45;&gt;nexus_service_integrations_wandb_finder -->
<g id="edge12" class="edge">
<title>nexus_service_core&#45;&gt;nexus_service_integrations_wandb_finder</title><style>.edge>path:hover{stroke-width:8}</style>
<path fill="none" stroke="black" d="M1033.5,-580.64C1046.82,-565.45 1045.68,-558.42 1057.5,-542.04 1065.58,-530.83 1074.85,-519.15 1083.71,-508.45"/>
<polygon fill="#f91010" stroke="black" points="1086.32,-510.79 1090.06,-500.88 1080.95,-506.29 1086.32,-510.79"/>
</g>
<!-- nexus_service_integrations_webhooks -->
<g id="node22" class="node">
<title>nexus_service_integrations_webhooks</title><style>.edge>path:hover{stroke-width:8}</style>
<ellipse fill="#964040" stroke="black" cx="962.5" cy="-466.44" rx="48.97" ry="39.6"/>
<text text-anchor="middle" x="962.5" y="-480.94" font-family="Helvetica,sans-Serif" font-size="10.00" fill="#ffffff">nexus.</text>
<text text-anchor="middle" x="962.5" y="-468.94" font-family="Helvetica,sans-Serif" font-size="10.00" fill="#ffffff">service.</text>
<text text-anchor="middle" x="962.5" y="-456.94" font-family="Helvetica,sans-Serif" font-size="10.00" fill="#ffffff">integrations.</text>
<text text-anchor="middle" x="962.5" y="-444.94" font-family="Helvetica,sans-Serif" font-size="10.00" fill="#ffffff">webhooks</text>
</g>
<!-- nexus_service_core&#45;&gt;nexus_service_integrations_webhooks -->
<g id="edge13" class="edge">
<title>nexus_service_core&#45;&gt;nexus_service_integrations_webhooks</title><style>.edge>path:hover{stroke-width:8}</style>
<path fill="none" stroke="black" d="M473.94,-691.64C596.37,-676.8 995.97,-625.42 1033.5,-582.64"/>
<path fill="none" stroke="black" d="M1033.5,-580.64C1054.74,-556.43 1032.07,-525.19 1006.86,-501.67"/>
<polygon fill="#f91010" stroke="black" points="1009.2,-499.06 999.41,-495.02 1004.54,-504.29 1009.2,-499.06"/>
</g>
<!-- nexus_service_job -->
<g id="node23" class="node">
<title>nexus_service_job</title><style>.edge>path:hover{stroke-width:8}</style>
<ellipse fill="#993333" stroke="black" cx="297.5" cy="-466.44" rx="35.71" ry="31.11"/>
<text text-anchor="middle" x="297.5" y="-474.94" font-family="Helvetica,sans-Serif" font-size="10.00" fill="#ffffff">nexus.</text>
<text text-anchor="middle" x="297.5" y="-462.94" font-family="Helvetica,sans-Serif" font-size="10.00" fill="#ffffff">service.</text>
<text text-anchor="middle" x="297.5" y="-450.94" font-family="Helvetica,sans-Serif" font-size="10.00" fill="#ffffff">job</text>
</g>
<!-- nexus_service_core&#45;&gt;nexus_service_job -->
<g id="edge14" class="edge">
<title>nexus_service_core&#45;&gt;nexus_service_job</title><style>.edge>path:hover{stroke-width:8}</style>
<path fill="none" stroke="black" d="M412.82,-675C387.85,-653.76 350.07,-618.87 324.5,-582.64"/>
</g>
<!-- nexus_service_core&#45;&gt;nexus_service_main -->
<g id="edge15" class="edge">
<title>nexus_service_core&#45;&gt;nexus_service_main</title><style>.edge>path:hover{stroke-width:8}</style>
<path fill="none" stroke="black" d="M458.68,-670.7C486.64,-635.25 537.84,-567.95 574.5,-506.04 594.39,-472.44 593.95,-461.2 612.5,-426.84 630.9,-392.77 636.8,-384.97 657.5,-352.24"/>
<path fill="none" stroke="black" d="M657.5,-350.24C668.3,-333.17 668.74,-327.31 681.5,-311.65 743.08,-236.03 778.67,-235.86 840.5,-160.45 850.53,-148.21 851.56,-144.02 859.5,-130.34"/>
</g>
<!-- nexus_service_utils_format -->
<g id="node26" class="node">
<title>nexus_service_utils_format</title><style>.edge>path:hover{stroke-width:8}</style>
<ellipse fill="#a83838" stroke="black" cx="169.5" cy="-466.44" rx="35.71" ry="39.6"/>
<text text-anchor="middle" x="169.5" y="-480.94" font-family="Helvetica,sans-Serif" font-size="10.00" fill="#ffffff">nexus.</text>
<text text-anchor="middle" x="169.5" y="-468.94" font-family="Helvetica,sans-Serif" font-size="10.00" fill="#ffffff">service.</text>
<text text-anchor="middle" x="169.5" y="-456.94" font-family="Helvetica,sans-Serif" font-size="10.00" fill="#ffffff">utils.</text>
<text text-anchor="middle" x="169.5" y="-444.94" font-family="Helvetica,sans-Serif" font-size="10.00" fill="#ffffff">format</text>
</g>
<!-- nexus_service_core&#45;&gt;nexus_service_utils_format -->
<g id="edge16" class="edge">
<title>nexus_service_core&#45;&gt;nexus_service_utils_format</title><style>.edge>path:hover{stroke-width:8}</style>
<path fill="none" stroke="black" d="M405.5,-683.93C363.65,-667.29 291.75,-633.31 248.5,-582.64"/>
<path fill="none" stroke="black" d="M248.5,-580.64C229.25,-558.09 210.16,-530.9 195.57,-508.83"/>
<polygon fill="#f91010" stroke="black" points="198.63,-507.11 190.23,-500.66 192.77,-510.94 198.63,-507.11"/>
</g>
<!-- nexus_service_core_config -->
<g id="node9" class="node">
<title>nexus_service_core_config</title><style>.edge>path:hover{stroke-width:8}</style>
<ellipse fill="#db2f2f" stroke="black" cx="1135.5" cy="-696.83" rx="35.71" ry="39.6"/>
<text text-anchor="middle" x="1135.5" y="-711.33" font-family="Helvetica,sans-Serif" font-size="10.00" fill="#ffffff">nexus.</text>
<text text-anchor="middle" x="1135.5" y="-699.33" font-family="Helvetica,sans-Serif" font-size="10.00" fill="#ffffff">service.</text>
<text text-anchor="middle" x="1135.5" y="-687.33" font-family="Helvetica,sans-Serif" font-size="10.00" fill="#ffffff">core.</text>
<text text-anchor="middle" x="1135.5" y="-675.33" font-family="Helvetica,sans-Serif" font-size="10.00" fill="#ffffff">config</text>
</g>
<!-- nexus_service_core_config&#45;&gt;nexus_service_api_scheduler -->
<g id="edge17" class="edge">
<title>nexus_service_core_config&#45;&gt;nexus_service_api_scheduler</title><style>.edge>path:hover{stroke-width:8}</style>
<path fill="none" stroke="black" d="M1162.56,-670.2C1167.97,-665.62 1173.77,-661.09 1179.5,-657.23 1209.19,-637.27 1225.06,-645.33 1251.5,-621.23 1266.43,-607.63 1265.94,-600.43 1275.5,-582.64"/>
<path fill="none" stroke="black" d="M1275.5,-580.64C1288.16,-557.08 1210.3,-376.71 1199.5,-352.24"/>
</g>
<!-- nexus_service_core_context -->
<g id="node10" class="node">
<title>nexus_service_core_context</title><style>.edge>path:hover{stroke-width:8}</style>
<ellipse fill="#ae1e1e" stroke="black" cx="1135.5" cy="-581.64" rx="35.71" ry="39.6"/>
<text text-anchor="middle" x="1135.5" y="-596.14" font-family="Helvetica,sans-Serif" font-size="10.00" fill="#ffffff">nexus.</text>
<text text-anchor="middle" x="1135.5" y="-584.14" font-family="Helvetica,sans-Serif" font-size="10.00" fill="#ffffff">service.</text>
<text text-anchor="middle" x="1135.5" y="-572.14" font-family="Helvetica,sans-Serif" font-size="10.00" fill="#ffffff">core.</text>
<text text-anchor="middle" x="1135.5" y="-560.14" font-family="Helvetica,sans-Serif" font-size="10.00" fill="#ffffff">context</text>
</g>
<!-- nexus_service_core_config&#45;&gt;nexus_service_core_context -->
<g id="edge18" class="edge">
<title>nexus_service_core_config&#45;&gt;nexus_service_core_context</title><style>.edge>path:hover{stroke-width:8}</style>
<path fill="none" stroke="black" d="M1135.5,-656.88C1135.5,-649.23 1135.5,-641.1 1135.5,-633.14"/>
<polygon fill="#db2f2f" stroke="black" points="1139,-633.18 1135.5,-623.18 1132,-633.18 1139,-633.18"/>
</g>
<!-- nexus_service_core_config&#45;&gt;nexus_service_installation_setup -->
<g id="edge19" class="edge">
<title>nexus_service_core_config&#45;&gt;nexus_service_installation_setup</title><style>.edge>path:hover{stroke-width:8}</style>
<path fill="none" stroke="black" d="M1275.5,-580.64C1288.45,-556.53 1304.95,-530.92 1319.08,-510.16"/>
<polygon fill="#db2f2f" stroke="black" points="1321.95,-512.16 1324.73,-501.93 1316.18,-508.19 1321.95,-512.16"/>
</g>
<!-- nexus_service_core_config&#45;&gt;nexus_service_main -->
<g id="edge20" class="edge">
<title>nexus_service_core_config&#45;&gt;nexus_service_main</title><style>.edge>path:hover{stroke-width:8}</style>
<path fill="none" stroke="black" d="M1275.5,-580.64C1299.82,-536.59 1269.41,-517.38 1275.5,-467.44"/>
</g>
<!-- nexus_service_core_context&#45;&gt;nexus_service_api_router -->
<g id="edge21" class="edge">
<title>nexus_service_core_context&#45;&gt;nexus_service_api_router</title><style>.edge>path:hover{stroke-width:8}</style>
<path fill="none" stroke="black" d="M1157.42,-550.05C1171.93,-528.14 1189.98,-497.34 1199.5,-467.44"/>
<path fill="none" stroke="black" d="M1199.5,-465.44C1247.54,-314.61 626.11,-254.54 447.66,-240.46"/>
<polygon fill="#ae1e1e" stroke="black" points="448.07,-236.98 437.83,-239.7 447.52,-243.96 448.07,-236.98"/>
</g>
<!-- nexus_service_core_context&#45;&gt;nexus_service_api_scheduler -->
<g id="edge22" class="edge">
<title>nexus_service_core_context&#45;&gt;nexus_service_api_scheduler</title><style>.edge>path:hover{stroke-width:8}</style>
<path fill="none" stroke="black" d="M1199.5,-465.44C1214.77,-417.5 1219.81,-398.27 1199.5,-352.24"/>
</g>
<!-- nexus_service_core_db -->
<g id="node11" class="node">
<title>nexus_service_core_db</title><style>.edge>path:hover{stroke-width:8}</style>
<ellipse fill="#9b2626" stroke="black" cx="657.5" cy="-466.44" rx="35.71" ry="39.6"/>
<text text-anchor="middle" x="657.5" y="-480.94" font-family="Helvetica,sans-Serif" font-size="10.00" fill="#ffffff">nexus.</text>
<text text-anchor="middle" x="657.5" y="-468.94" font-family="Helvetica,sans-Serif" font-size="10.00" fill="#ffffff">service.</text>
<text text-anchor="middle" x="657.5" y="-456.94" font-family="Helvetica,sans-Serif" font-size="10.00" fill="#ffffff">core.</text>
<text text-anchor="middle" x="657.5" y="-444.94" font-family="Helvetica,sans-Serif" font-size="10.00" fill="#ffffff">db</text>
</g>
<!-- nexus_service_core_context&#45;&gt;nexus_service_core_db -->
<g id="edge23" class="edge">
<title>nexus_service_core_context&#45;&gt;nexus_service_core_db</title><style>.edge>path:hover{stroke-width:8}</style>
<path fill="none" stroke="black" d="M1108.4,-555.35C1101.41,-550.11 1093.56,-545.22 1085.5,-542.04 926.44,-479.33 859.89,-572.83 702.5,-506.04 699.09,-504.59 695.75,-502.79 692.52,-500.76"/>
<polygon fill="#ae1e1e" stroke="black" points="694.65,-497.97 684.48,-494.99 690.57,-503.66 694.65,-497.97"/>
</g>
<!-- nexus_service_core_context&#45;&gt;nexus_service_main -->
<g id="edge24" class="edge">
<title>nexus_service_core_context&#45;&gt;nexus_service_main</title><style>.edge>path:hover{stroke-width:8}</style>
<path fill="none" stroke="black" d="M1199.5,-465.44C1209.69,-405.71 1310.82,-401.48 1275.5,-352.24"/>
<path fill="none" stroke="black" d="M1275.5,-350.24C1256.58,-323.87 1242.13,-326.93 1213.5,-311.65 1069.4,-234.71 1001.74,-267.66 878.5,-160.45 866.56,-150.06 850.74,-143.52 859.5,-130.34"/>
</g>
<!-- nexus_service_core_db&#45;&gt;nexus_service_api_router -->
<g id="edge25" class="edge">
<title>nexus_service_core_db&#45;&gt;nexus_service_api_router</title><style>.edge>path:hover{stroke-width:8}</style>
<path fill="none" stroke="black" d="M624.88,-450C609.63,-442.84 591.19,-434.3 574.5,-426.84 497.68,-392.52 407.93,-436.06 400.5,-352.24"/>
</g>
<!-- nexus_service_core_db&#45;&gt;nexus_service_api_scheduler -->
<g id="edge26" class="edge">
<title>nexus_service_core_db&#45;&gt;nexus_service_api_scheduler</title><style>.edge>path:hover{stroke-width:8}</style>
<path fill="none" stroke="black" d="M664.56,-427.4C671.06,-397.5 681.79,-359.68 695.5,-352.24"/>
</g>
<!-- nexus_service_core_db&#45;&gt;nexus_service_main -->
<g id="edge27" class="edge">
<title>nexus_service_core_db&#45;&gt;nexus_service_main</title><style>.edge>path:hover{stroke-width:8}</style>
<path fill="none" stroke="black" d="M647.91,-427.98C644.08,-404.47 643.42,-374.5 657.5,-352.24"/>
</g>
<!-- nexus_service_core_env -->
<g id="node12" class="node">
<title>nexus_service_core_env</title><style>.edge>path:hover{stroke-width:8}</style>
<ellipse fill="#ce3b3b" stroke="black" cx="1224.5" cy="-696.83" rx="35.71" ry="39.6"/>
<text text-anchor="middle" x="1224.5" y="-711.33" font-family="Helvetica,sans-Serif" font-size="10.00" fill="#ffffff">nexus.</text>
<text text-anchor="middle" x="1224.5" y="-699.33" font-family="Helvetica,sans-Serif" font-size="10.00" fill="#ffffff">service.</text>
<text text-anchor="middle" x="1224.5" y="-687.33" font-family="Helvetica,sans-Serif" font-size="10.00" fill="#ffffff">core.</text>
<text text-anchor="middle" x="1224.5" y="-675.33" font-family="Helvetica,sans-Serif" font-size="10.00" fill="#ffffff">env</text>
</g>
<!-- nexus_service_core_env&#45;&gt;nexus_service_core_context -->
<g id="edge28" class="edge">
<title>nexus_service_core_env&#45;&gt;nexus_service_core_context</title><style>.edge>path:hover{stroke-width:8}</style>
<path fill="none" stroke="black" d="M1201.35,-666.39C1190.43,-652.5 1177.26,-635.75 1165.58,-620.9"/>
<polygon fill="#ce3b3b" stroke="black" points="1168.4,-618.82 1159.47,-613.12 1162.9,-623.15 1168.4,-618.82"/>
</g>
<!-- nexus_service_core_env&#45;&gt;nexus_service_installation_setup -->
<g id="edge29" class="edge">
<title>nexus_service_core_env&#45;&gt;nexus_service_installation_setup</title><style>.edge>path:hover{stroke-width:8}</style>
<path fill="none" stroke="black" d="M1259.9,-689.48C1309.85,-678.24 1397.79,-649.4 1423.5,-582.64"/>
<path fill="none" stroke="black" d="M1423.5,-580.64C1434.7,-551.56 1414.4,-522.21 1392.25,-500.69"/>
<polygon fill="#ce3b3b" stroke="black" points="1394.9,-498.37 1385.18,-494.15 1390.15,-503.51 1394.9,-498.37"/>
</g>
<!-- nexus_service_core_env&#45;&gt;nexus_service_main -->
<g id="edge30" class="edge">
<title>nexus_service_core_env&#45;&gt;nexus_service_main</title><style>.edge>path:hover{stroke-width:8}</style>
<path fill="none" stroke="black" d="M1423.5,-580.64C1459.98,-485.91 1423.5,-453.75 1423.5,-352.24 1423.5,-352.24 1423.5,-352.24 1423.5,-235.05 1423.5,-132.21 1070.13,-61.82 941.56,-39.61"/>
<polygon fill="#ce3b3b" stroke="black" points="942.49,-36.22 932.04,-37.98 941.31,-43.12 942.49,-36.22"/>
</g>
<!-- nexus_service_core_exceptions -->
<g id="node13" class="node">
<title>nexus_service_core_exceptions</title><style>.edge>path:hover{stroke-width:8}</style>
<ellipse fill="#e72222" stroke="black" cx="134.5" cy="-696.83" rx="44.72" ry="39.6"/>
<text text-anchor="middle" x="134.5" y="-711.33" font-family="Helvetica,sans-Serif" font-size="10.00" fill="#ffffff">nexus.</text>
<text text-anchor="middle" x="134.5" y="-699.33" font-family="Helvetica,sans-Serif" font-size="10.00" fill="#ffffff">service.</text>
<text text-anchor="middle" x="134.5" y="-687.33" font-family="Helvetica,sans-Serif" font-size="10.00" fill="#ffffff">core.</text>
<text text-anchor="middle" x="134.5" y="-675.33" font-family="Helvetica,sans-Serif" font-size="10.00" fill="#ffffff">exceptions</text>
</g>
<!-- nexus_service_core_exceptions&#45;&gt;nexus_service_api_router -->
<g id="edge31" class="edge">
<title>nexus_service_core_exceptions&#45;&gt;nexus_service_api_router</title><style>.edge>path:hover{stroke-width:8}</style>
<path fill="none" stroke="black" d="M140.51,-657.12C142.52,-634.78 142.52,-606.48 134.5,-582.64"/>
<path fill="none" stroke="black" d="M134.5,-580.64C120.75,-539.75 94.05,-375.14 105.5,-352.24"/>
<path fill="none" stroke="black" d="M105.5,-350.24C149.16,-259.81 281.22,-240.83 352.93,-237.36"/>
<polygon fill="#e72222" stroke="black" points="352.96,-240.86 362.81,-236.97 352.68,-233.86 352.96,-240.86"/>
</g>
<!-- nexus_service_core_exceptions&#45;&gt;nexus_service_core_db -->
<g id="edge32" class="edge">
<title>nexus_service_core_exceptions&#45;&gt;nexus_service_core_db</title><style>.edge>path:hover{stroke-width:8}</style>
<path fill="none" stroke="black" d="M166.74,-668.84C173.29,-664.39 180.37,-660.25 187.5,-657.23 273.9,-620.66 306.1,-649.68 395.5,-621.23 433.5,-609.14 440.96,-600.72 476.5,-582.64"/>
<path fill="none" stroke="black" d="M476.5,-580.64C490.75,-573.38 568.07,-524.45 616.93,-493.34"/>
<polygon fill="#e72222" stroke="black" points="618.77,-496.32 625.32,-488 615,-490.42 618.77,-496.32"/>
</g>
<!-- nexus_service_core_exceptions&#45;&gt;nexus_service_integrations_git -->
<g id="edge33" class="edge">
<title>nexus_service_core_exceptions&#45;&gt;nexus_service_integrations_git</title><style>.edge>path:hover{stroke-width:8}</style>
<path fill="none" stroke="black" d="M166.89,-669.2C173.44,-664.72 180.47,-660.47 187.5,-657.23 250.16,-628.36 277.6,-653.65 338.5,-621.23 384.37,-596.82 385.19,-576.02 424.5,-542.04 440.11,-528.55 457.61,-514.18 473.12,-501.69"/>
<polygon fill="#e72222" stroke="black" points="475.21,-504.5 480.82,-495.52 470.83,-499.04 475.21,-504.5"/>
</g>
<!-- nexus_service_core_exceptions&#45;&gt;nexus_service_integrations_gpu -->
<g id="edge34" class="edge">
<title>nexus_service_core_exceptions&#45;&gt;nexus_service_integrations_gpu</title><style>.edge>path:hover{stroke-width:8}</style>
<path fill="none" stroke="black" d="M166.33,-668.97C183.08,-654.81 203.94,-637.12 222.5,-621.23 269.47,-581.04 323.12,-534.61 359.14,-503.37"/>
<polygon fill="#e72222" stroke="black" points="361.04,-506.35 366.3,-497.15 356.46,-501.06 361.04,-506.35"/>
</g>
<!-- nexus_service_core_exceptions&#45;&gt;nexus_service_job -->
<g id="edge35" class="edge">
<title>nexus_service_core_exceptions&#45;&gt;nexus_service_job</title><style>.edge>path:hover{stroke-width:8}</style>
<path fill="none" stroke="black" d="M155.17,-661.41C174.61,-629.69 205.06,-581.67 234.5,-542.04 245.01,-527.89 257.38,-512.92 268.36,-500.14"/>
<polygon fill="#e72222" stroke="black" points="270.8,-502.67 274.71,-492.82 265.52,-498.08 270.8,-502.67"/>
</g>
<!-- nexus_service_core_logger -->
<g id="node14" class="node">
<title>nexus_service_core_logger</title><style>.edge>path:hover{stroke-width:8}</style>
<ellipse fill="#f91010" stroke="black" cx="839.5" cy="-696.83" rx="35.71" ry="39.6"/>
<text text-anchor="middle" x="839.5" y="-711.33" font-family="Helvetica,sans-Serif" font-size="10.00" fill="#ffffff">nexus.</text>
<text text-anchor="middle" x="839.5" y="-699.33" font-family="Helvetica,sans-Serif" font-size="10.00" fill="#ffffff">service.</text>
<text text-anchor="middle" x="839.5" y="-687.33" font-family="Helvetica,sans-Serif" font-size="10.00" fill="#ffffff">core.</text>
<text text-anchor="middle" x="839.5" y="-675.33" font-family="Helvetica,sans-Serif" font-size="10.00" fill="#ffffff">logger</text>
</g>
<!-- nexus_service_core_logger&#45;&gt;nexus_service_core_context -->
<g id="edge36" class="edge">
<title>nexus_service_core_logger&#45;&gt;nexus_service_core_context</title><style>.edge>path:hover{stroke-width:8}</style>
<path fill="none" stroke="black" d="M874.84,-689.33C924.05,-679.36 1015.09,-657.53 1085.5,-621.23 1089.9,-618.97 1094.29,-616.3 1098.56,-613.45"/>
<polygon fill="#f91010" stroke="black" points="1100.28,-616.52 1106.39,-607.86 1096.22,-610.82 1100.28,-616.52"/>
</g>
<!-- nexus_service_core_logger&#45;&gt;nexus_service_core_db -->
<g id="edge37" class="edge">
<title>nexus_service_core_logger&#45;&gt;nexus_service_core_db</title><style>.edge>path:hover{stroke-width:8}</style>
<path fill="none" stroke="black" d="M875.38,-694.14C938.71,-688.96 1064.31,-667.93 1071.5,-582.64"/>
<path fill="none" stroke="black" d="M1071.5,-580.64C1073.2,-560.51 1064.62,-552.76 1047.5,-542.04 916.82,-460.25 844.1,-566.99 702.5,-506.04 699.1,-504.57 695.76,-502.76 692.54,-500.72"/>
<polygon fill="#f91010" stroke="black" points="694.67,-497.94 684.5,-494.94 690.58,-503.62 694.67,-497.94"/>
</g>
<!-- nexus_service_core_logger&#45;&gt;nexus_service_integrations_git -->
<g id="edge38" class="edge">
<title>nexus_service_core_logger&#45;&gt;nexus_service_integrations_git</title><style>.edge>path:hover{stroke-width:8}</style>
<path fill="none" stroke="black" d="M809.4,-674.55C752.56,-634.36 629.13,-547.08 562.08,-499.67"/>
<polygon fill="#f91010" stroke="black" points="564.42,-497.04 554.24,-494.12 560.38,-502.75 564.42,-497.04"/>
</g>
<!-- nexus_service_core_logger&#45;&gt;nexus_service_integrations_gpu -->
<g id="edge39" class="edge">
<title>nexus_service_core_logger&#45;&gt;nexus_service_integrations_gpu</title><style>.edge>path:hover{stroke-width:8}</style>
<path fill="none" stroke="black" d="M804.81,-686.71C761.7,-674.69 686.5,-651.5 626.5,-621.23 558.85,-587.11 487.69,-535.74 443.7,-501.9"/>
<polygon fill="#f91010" stroke="black" points="445.98,-499.24 435.93,-495.88 441.7,-504.77 445.98,-499.24"/>
</g>
<!-- nexus_service_core_logger&#45;&gt;nexus_service_integrations_wandb_finder -->
<g id="edge40" class="edge">
<title>nexus_service_core_logger&#45;&gt;nexus_service_integrations_wandb_finder</title><style>.edge>path:hover{stroke-width:8}</style>
<path fill="none" stroke="black" d="M1071.5,-580.64C1073.48,-557.09 1082.73,-532.74 1092.58,-512.69"/>
<polygon fill="#f91010" stroke="black" points="1095.61,-514.46 1097.06,-503.96 1089.38,-511.26 1095.61,-514.46"/>
</g>
<!-- nexus_service_core_logger&#45;&gt;nexus_service_integrations_webhooks -->
<g id="edge41" class="edge">
<title>nexus_service_core_logger&#45;&gt;nexus_service_integrations_webhooks</title><style>.edge>path:hover{stroke-width:8}</style>
<path fill="none" stroke="black" d="M1071.5,-580.64C1074.63,-543.47 1043.34,-513.72 1013.49,-494.06"/>
<polygon fill="#f91010" stroke="black" points="1015.51,-491.2 1005.18,-488.84 1011.78,-497.13 1015.51,-491.2"/>
</g>
<!-- nexus_service_core_logger&#45;&gt;nexus_service_job -->
<g id="edge42" class="edge">
<title>nexus_service_core_logger&#45;&gt;nexus_service_job</title><style>.edge>path:hover{stroke-width:8}</style>
<path fill="none" stroke="black" d="M803.67,-693.95C696.17,-687.46 380.39,-661.82 324.5,-582.64"/>
</g>
<!-- nexus_service_core_logger&#45;&gt;nexus_service_main -->
<g id="edge43" class="edge">
<title>nexus_service_core_logger&#45;&gt;nexus_service_main</title><style>.edge>path:hover{stroke-width:8}</style>
<path fill="none" stroke="black" d="M875.37,-691.57C952.54,-681.83 1131.3,-656.09 1180.5,-621.23 1246.06,-574.79 1268.94,-547.51 1275.5,-467.44"/>
<path fill="none" stroke="black" d="M1275.5,-465.44C1281.59,-415.5 1302.44,-394.73 1275.5,-352.24"/>
</g>
<!-- nexus_service_core_models -->
<g id="node15" class="node">
<title>nexus_service_core_models</title><style>.edge>path:hover{stroke-width:8}</style>
<ellipse fill="#f31616" stroke="black" cx="232.5" cy="-696.83" rx="35.71" ry="39.6"/>
<text text-anchor="middle" x="232.5" y="-711.33" font-family="Helvetica,sans-Serif" font-size="10.00" fill="#ffffff">nexus.</text>
<text text-anchor="middle" x="232.5" y="-699.33" font-family="Helvetica,sans-Serif" font-size="10.00" fill="#ffffff">service.</text>
<text text-anchor="middle" x="232.5" y="-687.33" font-family="Helvetica,sans-Serif" font-size="10.00" fill="#ffffff">core.</text>
<text text-anchor="middle" x="232.5" y="-675.33" font-family="Helvetica,sans-Serif" font-size="10.00" fill="#ffffff">models</text>
</g>
<!-- nexus_service_core_models&#45;&gt;nexus_service_api_router -->
<g id="edge44" class="edge">
<title>nexus_service_core_models&#45;&gt;nexus_service_api_router</title><style>.edge>path:hover{stroke-width:8}</style>
<path fill="none" stroke="black" d="M205.77,-669.82C179.14,-643.12 141.25,-602.72 134.5,-582.64"/>
</g>
<!-- nexus_service_core_models&#45;&gt;nexus_service_core_db -->
<g id="edge45" class="edge">
<title>nexus_service_core_models&#45;&gt;nexus_service_core_db</title><style>.edge>path:hover{stroke-width:8}</style>
<path fill="none" stroke="black" d="M265.62,-681.38C312.89,-660.56 402.21,-620.44 476.5,-582.64"/>
</g>
<!-- nexus_service_core_models&#45;&gt;nexus_service_integrations_gpu -->
<g id="edge46" class="edge">
<title>nexus_service_core_models&#45;&gt;nexus_service_integrations_gpu</title><style>.edge>path:hover{stroke-width:8}</style>
<path fill="none" stroke="black" d="M265.03,-679.52C288.2,-666.49 318.65,-646.27 338.5,-621.23 362.9,-590.46 378.9,-548.81 388.53,-516.62"/>
<polygon fill="#f31616" stroke="black" points="391.86,-517.69 391.25,-507.12 385.13,-515.76 391.86,-517.69"/>
</g>
<!-- nexus_service_core_models&#45;&gt;nexus_service_integrations_webhooks -->
<g id="edge47" class="edge">
<title>nexus_service_core_models&#45;&gt;nexus_service_integrations_webhooks</title><style>.edge>path:hover{stroke-width:8}</style>
<path fill="none" stroke="black" d="M267.46,-687.49C388.01,-658.48 785.42,-560.83 904.5,-506.04 908.7,-504.1 912.94,-501.89 917.12,-499.51"/>
<polygon fill="#f31616" stroke="black" points="918.63,-502.69 925.39,-494.53 915.02,-496.69 918.63,-502.69"/>
</g>
<!-- nexus_service_core_models&#45;&gt;nexus_service_job -->
<g id="edge48" class="edge">
<title>nexus_service_core_models&#45;&gt;nexus_service_job</title><style>.edge>path:hover{stroke-width:8}</style>
<path fill="none" stroke="black" d="M264.45,-678.38C300.03,-656.64 349.47,-618.02 324.5,-582.64"/>
<path fill="none" stroke="black" d="M324.5,-580.64C309.82,-559.83 303.05,-532.08 299.96,-509.26"/>
<polygon fill="#f31616" stroke="black" points="303.44,-508.88 298.83,-499.34 296.48,-509.67 303.44,-508.88"/>
</g>
<!-- nexus_service_core_models&#45;&gt;nexus_service_utils_format -->
<g id="edge49" class="edge">
<title>nexus_service_core_models&#45;&gt;nexus_service_utils_format</title><style>.edge>path:hover{stroke-width:8}</style>
<path fill="none" stroke="black" d="M222.24,-658.63C211.48,-619.64 194.55,-558.24 182.78,-515.59"/>
<polygon fill="#f31616" stroke="black" points="186.19,-514.8 180.16,-506.09 179.45,-516.66 186.19,-514.8"/>
</g>
<!-- nexus_service_installation -->
<g id="node16" class="node">
<title>nexus_service_installation</title><style>.edge>path:hover{stroke-width:8}</style>
<ellipse fill="#b65353" stroke="black" cx="931.5" cy="-129.34" rx="44.19" ry="31.11"/>
<text text-anchor="middle" x="931.5" y="-137.84" font-family="Helvetica,sans-Serif" font-size="10.00" fill="#ffffff">nexus.</text>
<text text-anchor="middle" x="931.5" y="-125.84" font-family="Helvetica,sans-Serif" font-size="10.00" fill="#ffffff">service.</text>
<text text-anchor="middle" x="931.5" y="-113.84" font-family="Helvetica,sans-Serif" font-size="10.00" fill="#ffffff">installation</text>
</g>
<!-- nexus_service_installation&#45;&gt;nexus_service_main -->
<g id="edge50" class="edge">
<title>nexus_service_installation&#45;&gt;nexus_service_main</title><style>.edge>path:hover{stroke-width:8}</style>
<path fill="none" stroke="black" d="M920.5,-98.94C917.26,-90.28 913.66,-80.67 910.23,-71.49"/>
<polygon fill="#b65353" stroke="black" points="913.62,-70.55 906.84,-62.41 907.06,-73.01 913.62,-70.55"/>
</g>
<!-- nexus_service_installation_setup&#45;&gt;nexus_service_main -->
<g id="edge51" class="edge">
<title>nexus_service_installation_setup&#45;&gt;nexus_service_main</title><style>.edge>path:hover{stroke-width:8}</style>
<path fill="none" stroke="black" d="M1328.07,-430.99C1313.69,-408.29 1294.04,-378.1 1275.5,-352.24"/>
</g>
<!-- nexus_service_integrations -->
<g id="node18" class="node">
<title>nexus_service_integrations</title><style>.edge>path:hover{stroke-width:8}</style>
<ellipse fill="#c24747" stroke="black" cx="758.5" cy="-466.44" rx="46.85" ry="31.11"/>
<text text-anchor="middle" x="758.5" y="-474.94" font-family="Helvetica,sans-Serif" font-size="10.00" fill="#ffffff">nexus.</text>
<text text-anchor="middle" x="758.5" y="-462.94" font-family="Helvetica,sans-Serif" font-size="10.00" fill="#ffffff">service.</text>
<text text-anchor="middle" x="758.5" y="-450.94" font-family="Helvetica,sans-Serif" font-size="10.00" fill="#ffffff">integrations</text>
</g>
<!-- nexus_service_integrations&#45;&gt;nexus_service_api_router -->
<g id="edge52" class="edge">
<title>nexus_service_integrations&#45;&gt;nexus_service_api_router</title><style>.edge>path:hover{stroke-width:8}</style>
<path fill="none" stroke="black" d="M778.97,-438.07C795.06,-412.97 811.54,-376.17 790.5,-352.24"/>
<path fill="none" stroke="black" d="M790.5,-350.24C744.9,-298.4 540.76,-259.62 447.39,-244.27"/>
<polygon fill="#c24747" stroke="black" points="447.96,-240.82 437.53,-242.67 446.84,-247.73 447.96,-240.82"/>
</g>
<!-- nexus_service_integrations&#45;&gt;nexus_service_api_scheduler -->
<g id="edge53" class="edge">
<title>nexus_service_integrations&#45;&gt;nexus_service_api_scheduler</title><style>.edge>path:hover{stroke-width:8}</style>
<path fill="none" stroke="black" d="M787.2,-441.41C817.08,-415.21 859.56,-374.1 859.5,-352.24"/>
<path fill="none" stroke="black" d="M859.5,-350.24C859.44,-329.72 859.43,-307.11 859.44,-287.53"/>
<polygon fill="#c24747" stroke="black" points="862.94,-287.59 859.44,-277.59 855.94,-287.59 862.94,-287.59"/>
</g>
<!-- nexus_service_integrations_git&#45;&gt;nexus_service_api_router -->
<g id="edge54" class="edge">
<title>nexus_service_integrations_git&#45;&gt;nexus_service_api_router</title><style>.edge>path:hover{stroke-width:8}</style>
<path fill="none" stroke="black" d="M480.64,-439.08C447.3,-413.28 402.49,-374.67 400.5,-352.24"/>
</g>
<!-- nexus_service_integrations_git&#45;&gt;nexus_service_api_scheduler -->
<g id="edge55" class="edge">
<title>nexus_service_integrations_git&#45;&gt;nexus_service_api_scheduler</title><style>.edge>path:hover{stroke-width:8}</style>
<path fill="none" stroke="black" d="M559.91,-447.79C599.36,-431.17 654,-406.55 671.5,-390.84 686.53,-377.35 677.74,-361.87 695.5,-352.24"/>
</g>
<!-- nexus_service_integrations_gpu&#45;&gt;nexus_service_api_router -->
<g id="edge56" class="edge">
<title>nexus_service_integrations_gpu&#45;&gt;nexus_service_api_router</title><style>.edge>path:hover{stroke-width:8}</style>
<path fill="none" stroke="black" d="M402.19,-426.6C402.72,-404.72 402.69,-376.91 400.5,-352.24"/>
</g>
<!-- nexus_service_integrations_gpu&#45;&gt;nexus_service_api_scheduler -->
<g id="edge57" class="edge">
<title>nexus_service_integrations_gpu&#45;&gt;nexus_service_api_scheduler</title><style>.edge>path:hover{stroke-width:8}</style>
<path fill="none" stroke="black" d="M435.71,-438.67C442.95,-434.14 450.74,-429.92 458.5,-426.84 547.76,-391.47 591.77,-444.34 671.5,-390.84 688.27,-379.59 677.74,-361.87 695.5,-352.24"/>
</g>
<!-- nexus_service_integrations_wandb_finder&#45;&gt;nexus_service_api_scheduler -->
<g id="edge58" class="edge">
<title>nexus_service_integrations_wandb_finder&#45;&gt;nexus_service_api_scheduler</title><style>.edge>path:hover{stroke-width:8}</style>
<path fill="none" stroke="black" d="M1157.88,-439.4C1184.89,-417.57 1213.88,-384.83 1199.5,-352.24"/>
</g>
<!-- nexus_service_integrations_webhooks&#45;&gt;nexus_service_api_scheduler -->
<g id="edge59" class="edge">
<title>nexus_service_integrations_webhooks&#45;&gt;nexus_service_api_scheduler</title><style>.edge>path:hover{stroke-width:8}</style>
<path fill="none" stroke="black" d="M928.52,-437.36C898.53,-411.19 859.56,-373.17 859.5,-352.24"/>
</g>
<!-- nexus_service_job&#45;&gt;nexus_service_api_router -->
<g id="edge60" class="edge">
<title>nexus_service_job&#45;&gt;nexus_service_api_router</title><style>.edge>path:hover{stroke-width:8}</style>
<path fill="none" stroke="black" d="M322.52,-444.08C345.54,-424.29 376.8,-397.01 381.5,-390.84 393.09,-375.63 402.19,-371.29 400.5,-352.24"/>
</g>
<!-- nexus_service_job&#45;&gt;nexus_service_api_scheduler -->
<g id="edge61" class="edge">
<title>nexus_service_job&#45;&gt;nexus_service_api_scheduler</title><style>.edge>path:hover{stroke-width:8}</style>
<path fill="none" stroke="black" d="M319.93,-441.64C326.63,-435.87 334.38,-430.36 342.5,-426.84 477.46,-368.35 547.01,-469.2 671.5,-390.84 688.6,-380.08 677.74,-361.87 695.5,-352.24"/>
</g>
<!-- nexus_service_utils -->
<g id="node25" class="node">
<title>nexus_service_utils</title><style>.edge>path:hover{stroke-width:8}</style>
<ellipse fill="#c24747" stroke="black" cx="859.5" cy="-466.44" rx="35.71" ry="31.11"/>
<text text-anchor="middle" x="859.5" y="-474.94" font-family="Helvetica,sans-Serif" font-size="10.00" fill="#ffffff">nexus.</text>
<text text-anchor="middle" x="859.5" y="-462.94" font-family="Helvetica,sans-Serif" font-size="10.00" fill="#ffffff">service.</text>
<text text-anchor="middle" x="859.5" y="-450.94" font-family="Helvetica,sans-Serif" font-size="10.00" fill="#ffffff">utils</text>
</g>
<!-- nexus_service_utils&#45;&gt;nexus_service_api_router -->
<g id="edge62" class="edge">
<title>nexus_service_utils&#45;&gt;nexus_service_api_router</title><style>.edge>path:hover{stroke-width:8}</style>
<path fill="none" stroke="black" d="M846.03,-437.58C833.6,-413.49 813.6,-378.51 790.5,-352.24"/>
</g>
<!-- nexus_service_utils&#45;&gt;nexus_service_api_scheduler -->
<g id="edge63" class="edge">
<title>nexus_service_utils&#45;&gt;nexus_service_api_scheduler</title><style>.edge>path:hover{stroke-width:8}</style>
<path fill="none" stroke="black" d="M859.55,-435.17C859.57,-412.37 859.58,-380.35 859.5,-352.24"/>
</g>
<!-- nexus_service_utils_format&#45;&gt;nexus_service_api_router -->
<g id="edge64" class="edge">
<title>nexus_service_utils_format&#45;&gt;nexus_service_api_router</title><style>.edge>path:hover{stroke-width:8}</style>
<path fill="none" stroke="black" d="M141.08,-441.97C117.31,-419.34 89.64,-383.94 105.5,-352.24"/>
</g>
<!-- nexus_service_utils_format&#45;&gt;nexus_service_api_scheduler -->
<g id="edge65" class="edge">
<title>nexus_service_utils_format&#45;&gt;nexus_service_api_scheduler</title><style>.edge>path:hover{stroke-width:8}</style>
<path fill="none" stroke="black" d="M201.23,-447.5C216.3,-439.82 234.84,-431.55 252.5,-426.84 342.8,-402.77 591.83,-439.7 671.5,-390.84 688.72,-380.28 677.74,-361.87 695.5,-352.24"/>
<path fill="none" stroke="black" d="M695.5,-350.24C739.65,-326.3 786.46,-293.11 818.72,-268.87"/>
<polygon fill="#a83838" stroke="black" points="820.77,-271.71 826.63,-262.88 816.55,-266.13 820.77,-271.71"/>
</g>
</g>
</svg>
