<?xml version="1.0" encoding="UTF-8" standalone="no"?>
<!DOCTYPE svg PUBLIC "-//W3C//DTD SVG 1.1//EN"
 "http://www.w3.org/Graphics/SVG/1.1/DTD/svg11.dtd">
<!-- Generated by graphviz version 9.0.0 (20230911.1827)
 -->
<!-- Title: G Pages: 1 -->
<svg width="1454pt" height="744pt"
 viewBox="0.00 0.00 1454.21 744.43" xmlns="http://www.w3.org/2000/svg" xmlns:xlink="http://www.w3.org/1999/xlink">
<g id="graph0" class="graph" transform="scale(1 1) rotate(0) translate(4 740.43)">
<title>G</title><style>.edge>path:hover{stroke-width:8}</style>
<polygon fill="white" stroke="none" points="-4,4 -4,-740.43 1450.21,-740.43 1450.21,4 -4,4"/>
<!-- nexus_cli -->
<g id="node1" class="node">
<title>nexus_cli</title><style>.edge>path:hover{stroke-width:8}</style>
<polygon fill="blue" stroke="black" points="67,-484.44 12,-484.44 12,-448.44 67,-448.44 67,-484.44"/>
<text text-anchor="middle" x="39.5" y="-462.94" font-family="Helvetica,sans-Serif" font-size="10.00" fill="white">nexus.cli</text>
</g>
<!-- nexus_cli_config -->
<g id="node2" class="node">
<title>nexus_cli_config</title><style>.edge>path:hover{stroke-width:8}</style>
<ellipse fill="#b65353" stroke="black" cx="39.5" cy="-696.83" rx="32" ry="31.11"/>
<text text-anchor="middle" x="39.5" y="-705.33" font-family="Helvetica,sans-Serif" font-size="10.00" fill="#ffffff">nexus.</text>
<text text-anchor="middle" x="39.5" y="-693.33" font-family="Helvetica,sans-Serif" font-size="10.00" fill="#ffffff">cli.</text>
<text text-anchor="middle" x="39.5" y="-681.33" font-family="Helvetica,sans-Serif" font-size="10.00" fill="#ffffff">config</text>
</g>
<!-- nexus_cli_main -->
<g id="node3" class="node">
<title>nexus_cli_main</title><style>.edge>path:hover{stroke-width:8}</style>
<polygon fill="blue" stroke="black" points="79,-599.64 0,-599.64 0,-563.64 79,-563.64 79,-599.64"/>
<text text-anchor="middle" x="39.5" y="-578.14" font-family="Helvetica,sans-Serif" font-size="10.00" fill="white">nexus.cli.main</text>
</g>
<!-- nexus_cli_config&#45;&gt;nexus_cli_main -->
<g id="edge1" class="edge">
<title>nexus_cli_config&#45;&gt;nexus_cli_main</title><style>.edge>path:hover{stroke-width:8}</style>
<path fill="none" stroke="black" d="M39.5,-665.5C39.5,-648.63 39.5,-627.77 39.5,-611.2"/>
<polygon fill="#b65353" stroke="black" points="43,-611.53 39.5,-601.53 36,-611.53 43,-611.53"/>
</g>
<!-- nexus_cli_main&#45;&gt;nexus_cli -->
<g id="edge2" class="edge">
<title>nexus_cli_main&#45;&gt;nexus_cli</title><style>.edge>path:hover{stroke-width:8}</style>
<path fill="none" stroke="black" d="M39.5,-563.44C39.5,-545.58 39.5,-517.31 39.5,-496.06"/>
<polygon fill="blue" stroke="black" points="43,-496.31 39.5,-486.31 36,-496.31 43,-496.31"/>
</g>
<!-- nexus_service_api -->
<g id="node4" class="node">
<title>nexus_service_api</title><style>.edge>path:hover{stroke-width:8}</style>
<ellipse fill="#b65353" stroke="black" cx="253.5" cy="-129.34" rx="35.71" ry="31.11"/>
<text text-anchor="middle" x="253.5" y="-137.84" font-family="Helvetica,sans-Serif" font-size="10.00" fill="#ffffff">nexus.</text>
<text text-anchor="middle" x="253.5" y="-125.84" font-family="Helvetica,sans-Serif" font-size="10.00" fill="#ffffff">service.</text>
<text text-anchor="middle" x="253.5" y="-113.84" font-family="Helvetica,sans-Serif" font-size="10.00" fill="#ffffff">api</text>
</g>
<!-- nexus_service_main -->
<g id="node21" class="node">
<title>nexus_service_main</title><style>.edge>path:hover{stroke-width:8}</style>
<ellipse fill="#7e4444" stroke="black" cx="285.5" cy="-31.11" rx="35.71" ry="31.11"/>
<text text-anchor="middle" x="285.5" y="-39.61" font-family="Helvetica,sans-Serif" font-size="10.00" fill="#ffffff">nexus.</text>
<text text-anchor="middle" x="285.5" y="-27.61" font-family="Helvetica,sans-Serif" font-size="10.00" fill="#ffffff">service.</text>
<text text-anchor="middle" x="285.5" y="-15.61" font-family="Helvetica,sans-Serif" font-size="10.00" fill="#ffffff">main</text>
</g>
<!-- nexus_service_api&#45;&gt;nexus_service_main -->
<g id="edge3" class="edge">
<title>nexus_service_api&#45;&gt;nexus_service_main</title><style>.edge>path:hover{stroke-width:8}</style>
<path fill="none" stroke="black" d="M263.27,-98.94C266.1,-90.46 269.23,-81.05 272.22,-72.04"/>
<polygon fill="#b65353" stroke="black" points="275.47,-73.36 275.31,-62.76 268.83,-71.15 275.47,-73.36"/>
</g>
<!-- nexus_service_api_router -->
<g id="node5" class="node">
<title>nexus_service_api_router</title><style>.edge>path:hover{stroke-width:8}</style>
<ellipse fill="#6b2e2e" stroke="black" cx="530.5" cy="-236.05" rx="35.71" ry="39.6"/>
<text text-anchor="middle" x="530.5" y="-250.55" font-family="Helvetica,sans-Serif" font-size="10.00" fill="#ffffff">nexus.</text>
<text text-anchor="middle" x="530.5" y="-238.55" font-family="Helvetica,sans-Serif" font-size="10.00" fill="#ffffff">service.</text>
<text text-anchor="middle" x="530.5" y="-226.55" font-family="Helvetica,sans-Serif" font-size="10.00" fill="#ffffff">api.</text>
<text text-anchor="middle" x="530.5" y="-214.55" font-family="Helvetica,sans-Serif" font-size="10.00" fill="#ffffff">router</text>
</g>
<!-- nexus_service_api_router&#45;&gt;nexus_service_main -->
<g id="edge4" class="edge">
<title>nexus_service_api_router&#45;&gt;nexus_service_main</title><style>.edge>path:hover{stroke-width:8}</style>
<path fill="none" stroke="black" d="M496.09,-223.88C440.23,-204.89 334.33,-164.99 317.5,-130.34"/>
</g>
<!-- nexus_service_api_scheduler -->
<g id="node6" class="node">
<title>nexus_service_api_scheduler</title><style>.edge>path:hover{stroke-width:8}</style>
<ellipse fill="#6b2e2e" stroke="black" cx="352.5" cy="-236.05" rx="41.01" ry="39.6"/>
<text text-anchor="middle" x="352.5" y="-250.55" font-family="Helvetica,sans-Serif" font-size="10.00" fill="#ffffff">nexus.</text>
<text text-anchor="middle" x="352.5" y="-238.55" font-family="Helvetica,sans-Serif" font-size="10.00" fill="#ffffff">service.</text>
<text text-anchor="middle" x="352.5" y="-226.55" font-family="Helvetica,sans-Serif" font-size="10.00" fill="#ffffff">api.</text>
<text text-anchor="middle" x="352.5" y="-214.55" font-family="Helvetica,sans-Serif" font-size="10.00" fill="#ffffff">scheduler</text>
</g>
<!-- nexus_service_api_scheduler&#45;&gt;nexus_service_main -->
<g id="edge5" class="edge">
<title>nexus_service_api_scheduler&#45;&gt;nexus_service_main</title><style>.edge>path:hover{stroke-width:8}</style>
<path fill="none" stroke="black" d="M342.46,-197.29C336.42,-176.95 327.88,-151.72 317.5,-130.34"/>
</g>
<!-- nexus_service_core -->
<g id="node7" class="node">
<title>nexus_service_core</title><style>.edge>path:hover{stroke-width:8}</style>
<ellipse fill="#f91010" stroke="black" cx="632.5" cy="-696.83" rx="35.71" ry="31.11"/>
<text text-anchor="middle" x="632.5" y="-705.33" font-family="Helvetica,sans-Serif" font-size="10.00" fill="#ffffff">nexus.</text>
<text text-anchor="middle" x="632.5" y="-693.33" font-family="Helvetica,sans-Serif" font-size="10.00" fill="#ffffff">service.</text>
<text text-anchor="middle" x="632.5" y="-681.33" font-family="Helvetica,sans-Serif" font-size="10.00" fill="#ffffff">core</text>
</g>
<!-- nexus_service_core&#45;&gt;nexus_service_api_router -->
<g id="edge6" class="edge">
<title>nexus_service_core&#45;&gt;nexus_service_api_router</title><style>.edge>path:hover{stroke-width:8}</style>
<path fill="none" stroke="black" d="M606.5,-580.64C574.22,-465.03 623.53,-424.44 582.5,-311.65 577.74,-298.55 570.07,-285.61 562.08,-274.29"/>
<polygon fill="#f91010" stroke="black" points="565,-272.35 556.24,-266.4 559.38,-276.52 565,-272.35"/>
</g>
<!-- nexus_service_core&#45;&gt;nexus_service_api_scheduler -->
<g id="edge7" class="edge">
<title>nexus_service_core&#45;&gt;nexus_service_api_scheduler</title><style>.edge>path:hover{stroke-width:8}</style>
<path fill="none" stroke="black" d="M596.55,-696.46C526.93,-695.41 376.5,-681.35 330.5,-582.64"/>
<path fill="none" stroke="black" d="M330.5,-580.64C306.83,-529.85 329.63,-369.17 343.53,-286.8"/>
<polygon fill="#f91010" stroke="black" points="346.97,-287.42 345.21,-276.97 340.07,-286.23 346.97,-287.42"/>
</g>
<!-- nexus_service_installation_setup -->
<g id="node14" class="node">
<title>nexus_service_installation_setup</title><style>.edge>path:hover{stroke-width:8}</style>
<ellipse fill="#8b4b4b" stroke="black" cx="171.5" cy="-351.24" rx="46.32" ry="39.6"/>
<text text-anchor="middle" x="171.5" y="-365.74" font-family="Helvetica,sans-Serif" font-size="10.00" fill="#ffffff">nexus.</text>
<text text-anchor="middle" x="171.5" y="-353.74" font-family="Helvetica,sans-Serif" font-size="10.00" fill="#ffffff">service.</text>
<text text-anchor="middle" x="171.5" y="-341.74" font-family="Helvetica,sans-Serif" font-size="10.00" fill="#ffffff">installation.</text>
<text text-anchor="middle" x="171.5" y="-329.74" font-family="Helvetica,sans-Serif" font-size="10.00" fill="#ffffff">setup</text>
</g>
<!-- nexus_service_core&#45;&gt;nexus_service_installation_setup -->
<g id="edge8" class="edge">
<title>nexus_service_core&#45;&gt;nexus_service_installation_setup</title><style>.edge>path:hover{stroke-width:8}</style>
<path fill="none" stroke="black" d="M596.8,-693.44C508.14,-686.86 280.76,-665.96 221.5,-621.23 206.24,-609.72 215.34,-596.8 202.5,-582.64"/>
<path fill="none" stroke="black" d="M202.5,-580.64C184.68,-560.98 170.88,-493.2 164.5,-467.44"/>
<path fill="none" stroke="black" d="M164.5,-465.44C159.44,-444.99 159.83,-421.86 162,-401.86"/>
<polygon fill="#f91010" stroke="black" points="165.47,-402.36 163.27,-392 158.52,-401.47 165.47,-402.36"/>
</g>
<!-- nexus_service_integrations_git -->
<g id="node16" class="node">
<title>nexus_service_integrations_git</title><style>.edge>path:hover{stroke-width:8}</style>
<ellipse fill="#a83838" stroke="black" cx="529.5" cy="-466.44" rx="48.97" ry="39.6"/>
<text text-anchor="middle" x="529.5" y="-480.94" font-family="Helvetica,sans-Serif" font-size="10.00" fill="#ffffff">nexus.</text>
<text text-anchor="middle" x="529.5" y="-468.94" font-family="Helvetica,sans-Serif" font-size="10.00" fill="#ffffff">service.</text>
<text text-anchor="middle" x="529.5" y="-456.94" font-family="Helvetica,sans-Serif" font-size="10.00" fill="#ffffff">integrations.</text>
<text text-anchor="middle" x="529.5" y="-444.94" font-family="Helvetica,sans-Serif" font-size="10.00" fill="#ffffff">git</text>
</g>
<!-- nexus_service_core&#45;&gt;nexus_service_integrations_git -->
<g id="edge9" class="edge">
<title>nexus_service_core&#45;&gt;nexus_service_integrations_git</title><style>.edge>path:hover{stroke-width:8}</style>
<path fill="none" stroke="black" d="M626.41,-665.85C621.56,-642.92 614.31,-610.6 606.5,-582.64"/>
<path fill="none" stroke="black" d="M606.5,-580.64C598.93,-553.52 581.87,-527.26 565.74,-506.87"/>
<polygon fill="#f91010" stroke="black" points="568.66,-504.92 559.62,-499.39 563.24,-509.35 568.66,-504.92"/>
</g>
<!-- nexus_service_integrations_gpu -->
<g id="node17" class="node">
<title>nexus_service_integrations_gpu</title><style>.edge>path:hover{stroke-width:8}</style>
<ellipse fill="#a13535" stroke="black" cx="1269.5" cy="-466.44" rx="48.97" ry="39.6"/>
<text text-anchor="middle" x="1269.5" y="-480.94" font-family="Helvetica,sans-Serif" font-size="10.00" fill="#ffffff">nexus.</text>
<text text-anchor="middle" x="1269.5" y="-468.94" font-family="Helvetica,sans-Serif" font-size="10.00" fill="#ffffff">service.</text>
<text text-anchor="middle" x="1269.5" y="-456.94" font-family="Helvetica,sans-Serif" font-size="10.00" fill="#ffffff">integrations.</text>
<text text-anchor="middle" x="1269.5" y="-444.94" font-family="Helvetica,sans-Serif" font-size="10.00" fill="#ffffff">gpu</text>
</g>
<!-- nexus_service_core&#45;&gt;nexus_service_integrations_gpu -->
<g id="edge10" class="edge">
<title>nexus_service_core&#45;&gt;nexus_service_integrations_gpu</title><style>.edge>path:hover{stroke-width:8}</style>
<path fill="none" stroke="black" d="M655.1,-672.23C661.55,-666.61 668.9,-661.12 676.5,-657.23 740.65,-624.48 766.12,-643.84 834.5,-621.23 917.48,-593.8 930.94,-567.67 1014.5,-542.04 1099.59,-515.94 1128.98,-539.38 1211.5,-506.04 1215.85,-504.28 1220.22,-502.17 1224.49,-499.85"/>
<polygon fill="#f91010" stroke="black" points="1226.09,-502.97 1232.95,-494.9 1222.55,-496.93 1226.09,-502.97"/>
</g>
<!-- nexus_service_integrations_wandb_finder -->
<g id="node18" class="node">
<title>nexus_service_integrations_wandb_finder</title><style>.edge>path:hover{stroke-width:8}</style>
<ellipse fill="#9d4343" stroke="black" cx="410.5" cy="-466.44" rx="52.15" ry="39.6"/>
<text text-anchor="middle" x="410.5" y="-480.94" font-family="Helvetica,sans-Serif" font-size="10.00" fill="#ffffff">nexus.</text>
<text text-anchor="middle" x="410.5" y="-468.94" font-family="Helvetica,sans-Serif" font-size="10.00" fill="#ffffff">service.</text>
<text text-anchor="middle" x="410.5" y="-456.94" font-family="Helvetica,sans-Serif" font-size="10.00" fill="#ffffff">integrations.</text>
<text text-anchor="middle" x="410.5" y="-444.94" font-family="Helvetica,sans-Serif" font-size="10.00" fill="#ffffff">wandb_finder</text>
</g>
<!-- nexus_service_core&#45;&gt;nexus_service_integrations_wandb_finder -->
<g id="edge11" class="edge">
<title>nexus_service_core&#45;&gt;nexus_service_integrations_wandb_finder</title><style>.edge>path:hover{stroke-width:8}</style>
<path fill="none" stroke="black" d="M330.5,-580.64C317,-551.66 339.05,-522.28 363.39,-500.71"/>
<polygon fill="#f91010" stroke="black" points="365.49,-503.52 370.88,-494.4 360.98,-498.16 365.49,-503.52"/>
</g>
<!-- nexus_service_integrations_webhooks -->
<g id="node19" class="node">
<title>nexus_service_integrations_webhooks</title><style>.edge>path:hover{stroke-width:8}</style>
<ellipse fill="#964040" stroke="black" cx="683.5" cy="-466.44" rx="48.97" ry="39.6"/>
<text text-anchor="middle" x="683.5" y="-480.94" font-family="Helvetica,sans-Serif" font-size="10.00" fill="#ffffff">nexus.</text>
<text text-anchor="middle" x="683.5" y="-468.94" font-family="Helvetica,sans-Serif" font-size="10.00" fill="#ffffff">service.</text>
<text text-anchor="middle" x="683.5" y="-456.94" font-family="Helvetica,sans-Serif" font-size="10.00" fill="#ffffff">integrations.</text>
<text text-anchor="middle" x="683.5" y="-444.94" font-family="Helvetica,sans-Serif" font-size="10.00" fill="#ffffff">webhooks</text>
</g>
<!-- nexus_service_core&#45;&gt;nexus_service_integrations_webhooks -->
<g id="edge12" class="edge">
<title>nexus_service_core&#45;&gt;nexus_service_integrations_webhooks</title><style>.edge>path:hover{stroke-width:8}</style>
<path fill="none" stroke="black" d="M651.31,-669.86C665.47,-647.82 682.59,-614.74 683.5,-582.64"/>
<path fill="none" stroke="black" d="M683.5,-580.64C684.08,-560.12 684.18,-537.51 684.11,-517.93"/>
<polygon fill="#f91010" stroke="black" points="687.61,-517.97 684.05,-507.99 680.61,-518.01 687.61,-517.97"/>
</g>
<!-- nexus_service_job -->
<g id="node20" class="node">
<title>nexus_service_job</title><style>.edge>path:hover{stroke-width:8}</style>
<ellipse fill="#a13535" stroke="black" cx="786.5" cy="-466.44" rx="35.71" ry="31.11"/>
<text text-anchor="middle" x="786.5" y="-474.94" font-family="Helvetica,sans-Serif" font-size="10.00" fill="#ffffff">nexus.</text>
<text text-anchor="middle" x="786.5" y="-462.94" font-family="Helvetica,sans-Serif" font-size="10.00" fill="#ffffff">service.</text>
<text text-anchor="middle" x="786.5" y="-450.94" font-family="Helvetica,sans-Serif" font-size="10.00" fill="#ffffff">job</text>
</g>
<!-- nexus_service_core&#45;&gt;nexus_service_job -->
<g id="edge13" class="edge">
<title>nexus_service_core&#45;&gt;nexus_service_job</title><style>.edge>path:hover{stroke-width:8}</style>
<path fill="none" stroke="black" d="M655.8,-672.82C676.19,-651.34 705.06,-617.45 721.5,-582.64"/>
<path fill="none" stroke="black" d="M721.5,-580.64C733.95,-554.28 750.3,-525.83 763.48,-504.05"/>
<polygon fill="#f91010" stroke="black" points="766.46,-505.88 768.69,-495.52 760.49,-502.23 766.46,-505.88"/>
</g>
<!-- nexus_service_core&#45;&gt;nexus_service_main -->
<g id="edge14" class="edge">
<title>nexus_service_core&#45;&gt;nexus_service_main</title><style>.edge>path:hover{stroke-width:8}</style>
<path fill="none" stroke="black" d="M202.5,-580.64C156.25,-529.6 206.51,-494.07 221.5,-426.84 240.81,-340.23 262.76,-323.33 283.5,-237.05"/>
<path fill="none" stroke="black" d="M283.5,-235.05C294.94,-187.47 338.88,-174.35 317.5,-130.34"/>
<path fill="none" stroke="black" d="M317.5,-128.34C308.98,-110.8 301.85,-90.43 296.49,-72.96"/>
<polygon fill="#f91010" stroke="black" points="299.86,-72 293.66,-63.41 293.14,-73.99 299.86,-72"/>
</g>
<!-- nexus_service_state -->
<g id="node22" class="node">
<title>nexus_service_state</title><style>.edge>path:hover{stroke-width:8}</style>
<ellipse fill="#8b4b4b" stroke="black" cx="1077.5" cy="-466.44" rx="35.71" ry="31.11"/>
<text text-anchor="middle" x="1077.5" y="-474.94" font-family="Helvetica,sans-Serif" font-size="10.00" fill="#ffffff">nexus.</text>
<text text-anchor="middle" x="1077.5" y="-462.94" font-family="Helvetica,sans-Serif" font-size="10.00" fill="#ffffff">service.</text>
<text text-anchor="middle" x="1077.5" y="-450.94" font-family="Helvetica,sans-Serif" font-size="10.00" fill="#ffffff">state</text>
</g>
<!-- nexus_service_core&#45;&gt;nexus_service_state -->
<g id="edge15" class="edge">
<title>nexus_service_core&#45;&gt;nexus_service_state</title><style>.edge>path:hover{stroke-width:8}</style>
<path fill="none" stroke="black" d="M655.35,-672.69C661.79,-667.06 669.08,-661.45 676.5,-657.23 721.59,-631.61 744.44,-650.14 787.5,-621.23 825.78,-595.54 814.82,-565.51 854.5,-542.04 923.97,-500.95 959.97,-541.46 1032.5,-506.04 1037.1,-503.79 1041.61,-500.96 1045.89,-497.86"/>
<polygon fill="#f91010" stroke="black" points="1048,-500.66 1053.66,-491.7 1043.65,-495.17 1048,-500.66"/>
</g>
<!-- nexus_service_utils_format -->
<g id="node24" class="node">
<title>nexus_service_utils_format</title><style>.edge>path:hover{stroke-width:8}</style>
<ellipse fill="#a83838" stroke="black" cx="875.5" cy="-466.44" rx="35.71" ry="39.6"/>
<text text-anchor="middle" x="875.5" y="-480.94" font-family="Helvetica,sans-Serif" font-size="10.00" fill="#ffffff">nexus.</text>
<text text-anchor="middle" x="875.5" y="-468.94" font-family="Helvetica,sans-Serif" font-size="10.00" fill="#ffffff">service.</text>
<text text-anchor="middle" x="875.5" y="-456.94" font-family="Helvetica,sans-Serif" font-size="10.00" fill="#ffffff">utils.</text>
<text text-anchor="middle" x="875.5" y="-444.94" font-family="Helvetica,sans-Serif" font-size="10.00" fill="#ffffff">format</text>
</g>
<!-- nexus_service_core&#45;&gt;nexus_service_utils_format -->
<g id="edge16" class="edge">
<title>nexus_service_core&#45;&gt;nexus_service_utils_format</title><style>.edge>path:hover{stroke-width:8}</style>
<path fill="none" stroke="black" d="M656.54,-673.42C662.86,-667.9 669.79,-662.17 676.5,-657.23 701.25,-639.04 711.81,-640.79 735.5,-621.23 777.62,-586.46 818.85,-539.08 845.53,-506.14"/>
<polygon fill="#f91010" stroke="black" points="848.19,-508.42 851.71,-498.43 842.72,-504.04 848.19,-508.42"/>
</g>
<!-- nexus_service_core_config -->
<g id="node8" class="node">
<title>nexus_service_core_config</title><style>.edge>path:hover{stroke-width:8}</style>
<ellipse fill="#ce3b3b" stroke="black" cx="138.5" cy="-581.64" rx="35.71" ry="39.6"/>
<text text-anchor="middle" x="138.5" y="-596.14" font-family="Helvetica,sans-Serif" font-size="10.00" fill="#ffffff">nexus.</text>
<text text-anchor="middle" x="138.5" y="-584.14" font-family="Helvetica,sans-Serif" font-size="10.00" fill="#ffffff">service.</text>
<text text-anchor="middle" x="138.5" y="-572.14" font-family="Helvetica,sans-Serif" font-size="10.00" fill="#ffffff">core.</text>
<text text-anchor="middle" x="138.5" y="-560.14" font-family="Helvetica,sans-Serif" font-size="10.00" fill="#ffffff">config</text>
</g>
<!-- nexus_service_core_config&#45;&gt;nexus_service_api_scheduler -->
<g id="edge17" class="edge">
<title>nexus_service_core_config&#45;&gt;nexus_service_api_scheduler</title><style>.edge>path:hover{stroke-width:8}</style>
<path fill="none" stroke="black" d="M119.97,-547.59C109.32,-525.59 97.94,-495.65 97.5,-467.44"/>
<path fill="none" stroke="black" d="M97.5,-465.44C96.43,-396.58 69.62,-362.1 116.5,-311.65 172.33,-251.56 222.09,-307.9 297.5,-275.65 302.34,-273.58 307.18,-271.04 311.88,-268.26"/>
<polygon fill="#ce3b3b" stroke="black" points="313.42,-271.42 319.98,-263.1 309.66,-265.52 313.42,-271.42"/>
</g>
<!-- nexus_service_core_context -->
<g id="node9" class="node">
<title>nexus_service_core_context</title><style>.edge>path:hover{stroke-width:8}</style>
<ellipse fill="#a32828" stroke="black" cx="266.5" cy="-466.44" rx="35.71" ry="39.6"/>
<text text-anchor="middle" x="266.5" y="-480.94" font-family="Helvetica,sans-Serif" font-size="10.00" fill="#ffffff">nexus.</text>
<text text-anchor="middle" x="266.5" y="-468.94" font-family="Helvetica,sans-Serif" font-size="10.00" fill="#ffffff">service.</text>
<text text-anchor="middle" x="266.5" y="-456.94" font-family="Helvetica,sans-Serif" font-size="10.00" fill="#ffffff">core.</text>
<text text-anchor="middle" x="266.5" y="-444.94" font-family="Helvetica,sans-Serif" font-size="10.00" fill="#ffffff">context</text>
</g>
<!-- nexus_service_core_config&#45;&gt;nexus_service_core_context -->
<g id="edge18" class="edge">
<title>nexus_service_core_config&#45;&gt;nexus_service_core_context</title><style>.edge>path:hover{stroke-width:8}</style>
<path fill="none" stroke="black" d="M166.27,-556.07C185.06,-539.46 210.06,-517.36 230.38,-499.38"/>
<polygon fill="#ce3b3b" stroke="black" points="232.47,-502.2 237.65,-492.96 227.84,-496.96 232.47,-502.2"/>
</g>
<!-- nexus_service_core_config&#45;&gt;nexus_service_installation_setup -->
<g id="edge19" class="edge">
<title>nexus_service_core_config&#45;&gt;nexus_service_installation_setup</title><style>.edge>path:hover{stroke-width:8}</style>
<path fill="none" stroke="black" d="M97.5,-465.44C97.05,-436.48 114.22,-409.14 132.13,-388.59"/>
<polygon fill="#ce3b3b" stroke="black" points="134.61,-391.07 138.78,-381.33 129.45,-386.34 134.61,-391.07"/>
</g>
<!-- nexus_service_core_context&#45;&gt;nexus_service_api_router -->
<g id="edge20" class="edge">
<title>nexus_service_core_context&#45;&gt;nexus_service_api_router</title><style>.edge>path:hover{stroke-width:8}</style>
<path fill="none" stroke="black" d="M294.25,-441.43C342.28,-399.88 440.87,-314.59 494.24,-268.41"/>
<polygon fill="#a32828" stroke="black" points="496.3,-271.26 501.58,-262.07 491.72,-265.97 496.3,-271.26"/>
</g>
<!-- nexus_service_core_context&#45;&gt;nexus_service_api_scheduler -->
<g id="edge21" class="edge">
<title>nexus_service_core_context&#45;&gt;nexus_service_api_scheduler</title><style>.edge>path:hover{stroke-width:8}</style>
<path fill="none" stroke="black" d="M283.5,-350.24C289.52,-323.16 305.17,-296.49 320.04,-275.84"/>
<polygon fill="#a32828" stroke="black" points="322.71,-278.12 325.88,-268.01 317.1,-273.94 322.71,-278.12"/>
</g>
<!-- nexus_service_core_context&#45;&gt;nexus_service_main -->
<g id="edge22" class="edge">
<title>nexus_service_core_context&#45;&gt;nexus_service_main</title><style>.edge>path:hover{stroke-width:8}</style>
<path fill="none" stroke="black" d="M270.96,-426.69C273.83,-404.71 278.04,-376.78 283.5,-352.24"/>
<path fill="none" stroke="black" d="M283.5,-350.24C294.42,-301.13 271.74,-285.96 283.5,-237.05"/>
</g>
<!-- nexus_service_core_db -->
<g id="node10" class="node">
<title>nexus_service_core_db</title><style>.edge>path:hover{stroke-width:8}</style>
<ellipse fill="#a83838" stroke="black" cx="1410.5" cy="-466.44" rx="35.71" ry="39.6"/>
<text text-anchor="middle" x="1410.5" y="-480.94" font-family="Helvetica,sans-Serif" font-size="10.00" fill="#ffffff">nexus.</text>
<text text-anchor="middle" x="1410.5" y="-468.94" font-family="Helvetica,sans-Serif" font-size="10.00" fill="#ffffff">service.</text>
<text text-anchor="middle" x="1410.5" y="-456.94" font-family="Helvetica,sans-Serif" font-size="10.00" fill="#ffffff">core.</text>
<text text-anchor="middle" x="1410.5" y="-444.94" font-family="Helvetica,sans-Serif" font-size="10.00" fill="#ffffff">db</text>
</g>
<!-- nexus_service_core_db&#45;&gt;nexus_service_api_router -->
<g id="edge23" class="edge">
<title>nexus_service_core_db&#45;&gt;nexus_service_api_router</title><style>.edge>path:hover{stroke-width:8}</style>
<path fill="none" stroke="black" d="M1391.78,-432.23C1379.04,-409.66 1361.79,-379.13 1346.5,-352.24"/>
</g>
<!-- nexus_service_core_db&#45;&gt;nexus_service_api_scheduler -->
<g id="edge24" class="edge">
<title>nexus_service_core_db&#45;&gt;nexus_service_api_scheduler</title><style>.edge>path:hover{stroke-width:8}</style>
<path fill="none" stroke="black" d="M1383.74,-439.8C1351.23,-408.76 1299.48,-359.67 1289.5,-352.24"/>
</g>
<!-- nexus_service_core_env -->
<g id="node11" class="node">
<title>nexus_service_core_env</title><style>.edge>path:hover{stroke-width:8}</style>
<ellipse fill="#c24747" stroke="black" cx="266.5" cy="-581.64" rx="35.71" ry="39.6"/>
<text text-anchor="middle" x="266.5" y="-596.14" font-family="Helvetica,sans-Serif" font-size="10.00" fill="#ffffff">nexus.</text>
<text text-anchor="middle" x="266.5" y="-584.14" font-family="Helvetica,sans-Serif" font-size="10.00" fill="#ffffff">service.</text>
<text text-anchor="middle" x="266.5" y="-572.14" font-family="Helvetica,sans-Serif" font-size="10.00" fill="#ffffff">core.</text>
<text text-anchor="middle" x="266.5" y="-560.14" font-family="Helvetica,sans-Serif" font-size="10.00" fill="#ffffff">env</text>
</g>
<!-- nexus_service_core_env&#45;&gt;nexus_service_core_context -->
<g id="edge25" class="edge">
<title>nexus_service_core_env&#45;&gt;nexus_service_core_context</title><style>.edge>path:hover{stroke-width:8}</style>
<path fill="none" stroke="black" d="M266.5,-541.68C266.5,-534.03 266.5,-525.91 266.5,-517.94"/>
<polygon fill="#c24747" stroke="black" points="270,-517.98 266.5,-507.98 263,-517.98 270,-517.98"/>
</g>
<!-- nexus_service_core_env&#45;&gt;nexus_service_installation_setup -->
<g id="edge26" class="edge">
<title>nexus_service_core_env&#45;&gt;nexus_service_installation_setup</title><style>.edge>path:hover{stroke-width:8}</style>
<path fill="none" stroke="black" d="M238.99,-555.93C210.6,-529.53 169.74,-488.63 164.5,-467.44"/>
</g>
<!-- nexus_service_core_logger -->
<g id="node12" class="node">
<title>nexus_service_core_logger</title><style>.edge>path:hover{stroke-width:8}</style>
<ellipse fill="#f91010" stroke="black" cx="721.5" cy="-696.83" rx="35.71" ry="39.6"/>
<text text-anchor="middle" x="721.5" y="-711.33" font-family="Helvetica,sans-Serif" font-size="10.00" fill="#ffffff">nexus.</text>
<text text-anchor="middle" x="721.5" y="-699.33" font-family="Helvetica,sans-Serif" font-size="10.00" fill="#ffffff">service.</text>
<text text-anchor="middle" x="721.5" y="-687.33" font-family="Helvetica,sans-Serif" font-size="10.00" fill="#ffffff">core.</text>
<text text-anchor="middle" x="721.5" y="-675.33" font-family="Helvetica,sans-Serif" font-size="10.00" fill="#ffffff">logger</text>
</g>
<!-- nexus_service_core_logger&#45;&gt;nexus_service_core_context -->
<g id="edge27" class="edge">
<title>nexus_service_core_logger&#45;&gt;nexus_service_core_context</title><style>.edge>path:hover{stroke-width:8}</style>
<path fill="none" stroke="black" d="M695.02,-670.45C689.46,-665.75 683.47,-661.11 677.5,-657.23 542.88,-569.8 495.16,-573.48 349.5,-506.04 336.54,-500.04 322.46,-493.5 309.63,-487.53"/>
<polygon fill="#f91010" stroke="black" points="311.12,-484.37 300.58,-483.32 308.17,-490.71 311.12,-484.37"/>
</g>
<!-- nexus_service_core_logger&#45;&gt;nexus_service_integrations_git -->
<g id="edge28" class="edge">
<title>nexus_service_core_logger&#45;&gt;nexus_service_integrations_git</title><style>.edge>path:hover{stroke-width:8}</style>
<path fill="none" stroke="black" d="M644.5,-580.64C630.18,-566.39 633.82,-557.22 620.5,-542.04 607.1,-526.76 590.37,-512.1 574.93,-499.87"/>
<polygon fill="#f91010" stroke="black" points="577.26,-497.25 567.21,-493.89 572.97,-502.79 577.26,-497.25"/>
</g>
<!-- nexus_service_core_logger&#45;&gt;nexus_service_integrations_gpu -->
<g id="edge29" class="edge">
<title>nexus_service_core_logger&#45;&gt;nexus_service_integrations_gpu</title><style>.edge>path:hover{stroke-width:8}</style>
<path fill="none" stroke="black" d="M756.7,-688.17C823.79,-673.35 967.45,-640.53 1014.5,-621.23 1108.34,-582.75 1125.47,-559.76 1211.5,-506.04 1215.2,-503.73 1219.01,-501.3 1222.83,-498.83"/>
<polygon fill="#f91010" stroke="black" points="1224.54,-501.9 1231,-493.51 1220.71,-496.04 1224.54,-501.9"/>
</g>
<!-- nexus_service_core_logger&#45;&gt;nexus_service_integrations_wandb_finder -->
<g id="edge30" class="edge">
<title>nexus_service_core_logger&#45;&gt;nexus_service_integrations_wandb_finder</title><style>.edge>path:hover{stroke-width:8}</style>
<path fill="none" stroke="black" d="M699.76,-665.14C690.35,-651.73 679.28,-635.78 669.5,-621.23 658.1,-604.27 658.99,-597.05 644.5,-582.64"/>
<path fill="none" stroke="black" d="M644.5,-580.64C630.18,-566.39 636.87,-553.87 620.5,-542.04 565.28,-502.13 534.23,-532.61 471.5,-506.04 467.15,-504.2 462.76,-502.06 458.43,-499.76"/>
<polygon fill="#f91010" stroke="black" points="460.25,-496.76 449.83,-494.88 456.8,-502.86 460.25,-496.76"/>
</g>
<!-- nexus_service_core_logger&#45;&gt;nexus_service_integrations_webhooks -->
<g id="edge31" class="edge">
<title>nexus_service_core_logger&#45;&gt;nexus_service_integrations_webhooks</title><style>.edge>path:hover{stroke-width:8}</style>
<path fill="none" stroke="black" d="M703.53,-662.62C693.32,-640.56 682.71,-610.61 683.5,-582.64"/>
</g>
<!-- nexus_service_core_logger&#45;&gt;nexus_service_job -->
<g id="edge32" class="edge">
<title>nexus_service_core_logger&#45;&gt;nexus_service_job</title><style>.edge>path:hover{stroke-width:8}</style>
<path fill="none" stroke="black" d="M713.64,-657.87C710.76,-635.01 710.51,-605.92 721.5,-582.64"/>
</g>
<!-- nexus_service_core_logger&#45;&gt;nexus_service_state -->
<g id="edge33" class="edge">
<title>nexus_service_core_logger&#45;&gt;nexus_service_state</title><style>.edge>path:hover{stroke-width:8}</style>
<path fill="none" stroke="black" d="M753.57,-678.71C811.31,-647.36 935.77,-577.37 1032.5,-506.04 1036.52,-503.07 1040.64,-499.84 1044.67,-496.56"/>
<polygon fill="#f91010" stroke="black" points="1046.7,-499.42 1052.12,-490.32 1042.2,-494.05 1046.7,-499.42"/>
</g>
<!-- nexus_service_core_models -->
<g id="node13" class="node">
<title>nexus_service_core_models</title><style>.edge>path:hover{stroke-width:8}</style>
<ellipse fill="#f91010" stroke="black" cx="949.5" cy="-696.83" rx="35.71" ry="39.6"/>
<text text-anchor="middle" x="949.5" y="-711.33" font-family="Helvetica,sans-Serif" font-size="10.00" fill="#ffffff">nexus.</text>
<text text-anchor="middle" x="949.5" y="-699.33" font-family="Helvetica,sans-Serif" font-size="10.00" fill="#ffffff">service.</text>
<text text-anchor="middle" x="949.5" y="-687.33" font-family="Helvetica,sans-Serif" font-size="10.00" fill="#ffffff">core.</text>
<text text-anchor="middle" x="949.5" y="-675.33" font-family="Helvetica,sans-Serif" font-size="10.00" fill="#ffffff">models</text>
</g>
<!-- nexus_service_core_models&#45;&gt;nexus_service_api_router -->
<g id="edge34" class="edge">
<title>nexus_service_core_models&#45;&gt;nexus_service_api_router</title><style>.edge>path:hover{stroke-width:8}</style>
<path fill="none" stroke="black" d="M1346.5,-580.64C1361.36,-560.06 1359.04,-374.31 1346.5,-352.24"/>
</g>
<!-- nexus_service_core_models&#45;&gt;nexus_service_core_db -->
<g id="edge35" class="edge">
<title>nexus_service_core_models&#45;&gt;nexus_service_core_db</title><style>.edge>path:hover{stroke-width:8}</style>
<path fill="none" stroke="black" d="M1346.5,-580.64C1362.06,-559.09 1376.84,-533.42 1388.28,-511.98"/>
<polygon fill="#f91010" stroke="black" points="1391.35,-513.65 1392.9,-503.16 1385.15,-510.39 1391.35,-513.65"/>
</g>
<!-- nexus_service_core_models&#45;&gt;nexus_service_integrations_gpu -->
<g id="edge36" class="edge">
<title>nexus_service_core_models&#45;&gt;nexus_service_integrations_gpu</title><style>.edge>path:hover{stroke-width:8}</style>
<path fill="none" stroke="black" d="M985.04,-691.28C1074.23,-679.04 1303.44,-642.27 1346.5,-582.64"/>
<path fill="none" stroke="black" d="M1346.5,-580.64C1365.84,-553.86 1341.49,-522.8 1315.19,-500"/>
<polygon fill="#f91010" stroke="black" points="1317.73,-497.56 1307.8,-493.86 1313.26,-502.94 1317.73,-497.56"/>
</g>
<!-- nexus_service_core_models&#45;&gt;nexus_service_integrations_webhooks -->
<g id="edge37" class="edge">
<title>nexus_service_core_models&#45;&gt;nexus_service_integrations_webhooks</title><style>.edge>path:hover{stroke-width:8}</style>
<path fill="none" stroke="black" d="M918.56,-676.99C895.9,-662.7 864.83,-642.02 839.5,-621.23 795.91,-585.47 750.49,-539.55 719.98,-507.23"/>
<polygon fill="#f91010" stroke="black" points="722.6,-504.91 713.2,-500.02 717.49,-509.7 722.6,-504.91"/>
</g>
<!-- nexus_service_core_models&#45;&gt;nexus_service_job -->
<g id="edge38" class="edge">
<title>nexus_service_core_models&#45;&gt;nexus_service_job</title><style>.edge>path:hover{stroke-width:8}</style>
<path fill="none" stroke="black" d="M927.52,-665.03C897.4,-622.83 843.44,-547.23 811.72,-502.78"/>
<polygon fill="#f91010" stroke="black" points="814.65,-500.86 805.99,-494.75 808.95,-504.93 814.65,-500.86"/>
</g>
<!-- nexus_service_core_models&#45;&gt;nexus_service_state -->
<g id="edge39" class="edge">
<title>nexus_service_core_models&#45;&gt;nexus_service_state</title><style>.edge>path:hover{stroke-width:8}</style>
<path fill="none" stroke="black" d="M968.11,-662.62C991.61,-620.7 1031.91,-548.78 1056.49,-504.93"/>
<polygon fill="#f91010" stroke="black" points="1059.5,-506.71 1061.34,-496.28 1053.4,-503.29 1059.5,-506.71"/>
</g>
<!-- nexus_service_core_models&#45;&gt;nexus_service_utils_format -->
<g id="edge40" class="edge">
<title>nexus_service_core_models&#45;&gt;nexus_service_utils_format</title><style>.edge>path:hover{stroke-width:8}</style>
<path fill="none" stroke="black" d="M937.61,-659.14C924.91,-619.93 904.73,-557.64 890.84,-514.77"/>
<polygon fill="#f91010" stroke="black" points="894.24,-513.92 887.83,-505.48 887.58,-516.08 894.24,-513.92"/>
</g>
<!-- nexus_service_integrations -->
<g id="node15" class="node">
<title>nexus_service_integrations</title><style>.edge>path:hover{stroke-width:8}</style>
<ellipse fill="#c24747" stroke="black" cx="976.5" cy="-466.44" rx="46.85" ry="31.11"/>
<text text-anchor="middle" x="976.5" y="-474.94" font-family="Helvetica,sans-Serif" font-size="10.00" fill="#ffffff">nexus.</text>
<text text-anchor="middle" x="976.5" y="-462.94" font-family="Helvetica,sans-Serif" font-size="10.00" fill="#ffffff">service.</text>
<text text-anchor="middle" x="976.5" y="-450.94" font-family="Helvetica,sans-Serif" font-size="10.00" fill="#ffffff">integrations</text>
</g>
<!-- nexus_service_integrations&#45;&gt;nexus_service_api_router -->
<g id="edge41" class="edge">
<title>nexus_service_integrations&#45;&gt;nexus_service_api_router</title><style>.edge>path:hover{stroke-width:8}</style>
<path fill="none" stroke="black" d="M964.3,-436.35C954.49,-413.33 940.15,-380.49 926.5,-352.24"/>
</g>
<!-- nexus_service_integrations&#45;&gt;nexus_service_api_scheduler -->
<g id="edge42" class="edge">
<title>nexus_service_integrations&#45;&gt;nexus_service_api_scheduler</title><style>.edge>path:hover{stroke-width:8}</style>
<path fill="none" stroke="black" d="M952.37,-439.32C939.92,-425.36 924.81,-407.63 912.5,-390.84 900.56,-374.55 907.21,-359.86 888.5,-352.24"/>
<path fill="none" stroke="black" d="M888.5,-350.24C719.8,-281.54 662.74,-317.66 485.5,-275.65 457.81,-269.08 427.29,-260.34 402.48,-252.83"/>
<polygon fill="#c24747" stroke="black" points="403.54,-249.5 392.96,-249.92 401.5,-256.19 403.54,-249.5"/>
</g>
<!-- nexus_service_integrations_git&#45;&gt;nexus_service_api_router -->
<g id="edge43" class="edge">
<title>nexus_service_integrations_git&#45;&gt;nexus_service_api_router</title><style>.edge>path:hover{stroke-width:8}</style>
<path fill="none" stroke="black" d="M529.67,-426.44C529.84,-388.01 530.1,-329.12 530.28,-287.23"/>
<polygon fill="#a83838" stroke="black" points="533.78,-287.42 530.32,-277.4 526.78,-287.39 533.78,-287.42"/>
</g>
<!-- nexus_service_integrations_git&#45;&gt;nexus_service_api_scheduler -->
<g id="edge44" class="edge">
<title>nexus_service_integrations_git&#45;&gt;nexus_service_api_scheduler</title><style>.edge>path:hover{stroke-width:8}</style>
<path fill="none" stroke="black" d="M523.35,-426.89C518.15,-403.53 508.82,-374.12 492.5,-352.24"/>
</g>
<!-- nexus_service_integrations_gpu&#45;&gt;nexus_service_api_router -->
<g id="edge45" class="edge">
<title>nexus_service_integrations_gpu&#45;&gt;nexus_service_api_router</title><style>.edge>path:hover{stroke-width:8}</style>
<path fill="none" stroke="black" d="M1306.41,-439.9C1334.06,-417.44 1364.3,-383.55 1346.5,-352.24"/>
</g>
<!-- nexus_service_integrations_gpu&#45;&gt;nexus_service_api_scheduler -->
<g id="edge46" class="edge">
<title>nexus_service_integrations_gpu&#45;&gt;nexus_service_api_scheduler</title><style>.edge>path:hover{stroke-width:8}</style>
<path fill="none" stroke="black" d="M1290.35,-430.34C1303.08,-404.02 1312.87,-369.64 1289.5,-352.24"/>
<path fill="none" stroke="black" d="M1289.5,-350.24C1150.85,-247.02 1074.61,-327.66 902.5,-311.65 717.28,-294.42 668.37,-309.73 485.5,-275.65 457.42,-270.41 426.76,-261.72 401.96,-253.91"/>
<polygon fill="#a13535" stroke="black" points="403.04,-250.59 392.45,-250.87 400.9,-257.25 403.04,-250.59"/>
</g>
<!-- nexus_service_integrations_wandb_finder&#45;&gt;nexus_service_api_scheduler -->
<g id="edge47" class="edge">
<title>nexus_service_integrations_wandb_finder&#45;&gt;nexus_service_api_scheduler</title><style>.edge>path:hover{stroke-width:8}</style>
<path fill="none" stroke="black" d="M449.82,-440.12C480.63,-417.08 514.85,-382.2 492.5,-352.24"/>
<path fill="none" stroke="black" d="M492.5,-350.24C466.36,-315.21 426.99,-284.67 396.66,-264.17"/>
<polygon fill="#9d4343" stroke="black" points="398.68,-261.31 388.41,-258.71 394.82,-267.15 398.68,-261.31"/>
</g>
<!-- nexus_service_integrations_webhooks&#45;&gt;nexus_service_api_scheduler -->
<g id="edge48" class="edge">
<title>nexus_service_integrations_webhooks&#45;&gt;nexus_service_api_scheduler</title><style>.edge>path:hover{stroke-width:8}</style>
<path fill="none" stroke="black" d="M641.71,-445.46C591.73,-420.78 512.32,-378.81 492.5,-352.24"/>
</g>
<!-- nexus_service_job&#45;&gt;nexus_service_api_router -->
<g id="edge49" class="edge">
<title>nexus_service_job&#45;&gt;nexus_service_api_router</title><style>.edge>path:hover{stroke-width:8}</style>
<path fill="none" stroke="black" d="M810.27,-442.63C816.59,-437.12 823.58,-431.49 830.5,-426.84 875.34,-396.7 950.01,-400.9 926.5,-352.24"/>
<path fill="none" stroke="black" d="M926.5,-350.24C917.71,-332.06 919.1,-323.16 902.5,-311.65 850.24,-275.42 665.2,-251.4 577.4,-241.79"/>
<polygon fill="#a13535" stroke="black" points="578,-238.33 567.68,-240.74 577.25,-245.29 578,-238.33"/>
</g>
<!-- nexus_service_job&#45;&gt;nexus_service_api_scheduler -->
<g id="edge50" class="edge">
<title>nexus_service_job&#45;&gt;nexus_service_api_scheduler</title><style>.edge>path:hover{stroke-width:8}</style>
<path fill="none" stroke="black" d="M762.79,-442.78C756.2,-437.15 748.83,-431.42 741.5,-426.84 670.47,-382.5 643.83,-388.8 568.5,-352.24"/>
<path fill="none" stroke="black" d="M568.5,-350.24C539.3,-336.08 534.92,-327.32 506.5,-311.65 471.48,-292.33 430.7,-272.7 399.91,-258.43"/>
<polygon fill="#a13535" stroke="black" points="401.38,-255.25 390.83,-254.25 398.45,-261.61 401.38,-255.25"/>
</g>
<!-- nexus_service_utils -->
<g id="node23" class="node">
<title>nexus_service_utils</title><style>.edge>path:hover{stroke-width:8}</style>
<ellipse fill="#c24747" stroke="black" cx="1166.5" cy="-466.44" rx="35.71" ry="31.11"/>
<text text-anchor="middle" x="1166.5" y="-474.94" font-family="Helvetica,sans-Serif" font-size="10.00" fill="#ffffff">nexus.</text>
<text text-anchor="middle" x="1166.5" y="-462.94" font-family="Helvetica,sans-Serif" font-size="10.00" fill="#ffffff">service.</text>
<text text-anchor="middle" x="1166.5" y="-450.94" font-family="Helvetica,sans-Serif" font-size="10.00" fill="#ffffff">utils</text>
</g>
<!-- nexus_service_utils&#45;&gt;nexus_service_api_router -->
<g id="edge51" class="edge">
<title>nexus_service_utils&#45;&gt;nexus_service_api_router</title><style>.edge>path:hover{stroke-width:8}</style>
<path fill="none" stroke="black" d="M1190.11,-442.61C1196.7,-436.98 1204.09,-431.3 1211.5,-426.84 1270.26,-391.54 1380.38,-411.84 1346.5,-352.24"/>
<path fill="none" stroke="black" d="M1346.5,-350.24C1333.81,-327.92 1327.01,-321.97 1303.5,-311.65 1172.04,-253.91 724.28,-240.61 577.51,-237.77"/>
<polygon fill="#c24747" stroke="black" points="577.84,-234.27 567.77,-237.59 577.71,-241.27 577.84,-234.27"/>
</g>
<!-- nexus_service_utils&#45;&gt;nexus_service_api_scheduler -->
<g id="edge52" class="edge">
<title>nexus_service_utils&#45;&gt;nexus_service_api_scheduler</title><style>.edge>path:hover{stroke-width:8}</style>
<path fill="none" stroke="black" d="M1144.5,-441.96C1137.94,-436.19 1130.39,-430.6 1122.5,-426.84 1037.02,-386.09 991.07,-443.7 912.5,-390.84 895.74,-379.57 907.21,-359.86 888.5,-352.24"/>
</g>
<!-- nexus_service_utils_format&#45;&gt;nexus_service_api_router -->
<g id="edge53" class="edge">
<title>nexus_service_utils_format&#45;&gt;nexus_service_api_router</title><style>.edge>path:hover{stroke-width:8}</style>
<path fill="none" stroke="black" d="M901.35,-438.72C920.37,-415.67 940.66,-381.55 926.5,-352.24"/>
</g>
<!-- nexus_service_utils_format&#45;&gt;nexus_service_api_scheduler -->
<g id="edge54" class="edge">
<title>nexus_service_utils_format&#45;&gt;nexus_service_api_scheduler</title><style>.edge>path:hover{stroke-width:8}</style>
<path fill="none" stroke="black" d="M849.47,-439.31C843.87,-434.67 837.75,-430.24 831.5,-426.84 724.77,-368.78 677.81,-405.28 568.5,-352.24"/>
</g>
</g>
</svg>
